<svg width="110" height="20" viewBox="0 0 110 20" fill="none" xmlns="http://www.w3.org/2000/svg">
<path d="M33.408 16V4.608H40.448V5.712H34.704V9.664H40.128V10.768H34.704V16H33.408ZM45.1954 16.112C44.4807 16.112 43.8514 15.9467 43.3074 15.616C42.774 15.2747 42.358 14.7947 42.0594 14.176C41.7714 13.5467 41.6274 12.8107 41.6274 11.968C41.6274 11.1253 41.7767 10.3893 42.0754 9.76C42.374 9.13067 42.79 8.64 43.3234 8.288C43.8674 7.936 44.4914 7.76 45.1954 7.76C45.9314 7.76 46.5554 7.94133 47.0674 8.304C47.5794 8.66667 47.926 9.184 48.1074 9.856L47.9154 9.984V7.952H49.1954V16H47.9154V13.92L48.1074 14.016C47.926 14.688 47.5794 15.2053 47.0674 15.568C46.5554 15.9307 45.9314 16.112 45.1954 16.112ZM45.4514 15.04C46.2407 15.04 46.8487 14.7733 47.2754 14.24C47.702 13.696 47.9154 12.928 47.9154 11.936C47.9154 10.944 47.6967 10.1813 47.2594 9.648C46.8327 9.11467 46.23 8.848 45.4514 8.848C44.662 8.848 44.0434 9.12533 43.5954 9.68C43.158 10.224 42.9394 10.9867 42.9394 11.968C42.9394 12.9493 43.158 13.7067 43.5954 14.24C44.0434 14.7733 44.662 15.04 45.4514 15.04ZM54.0691 16L50.6451 7.968H52.0051L54.9171 15.056H54.5331L57.4771 7.968H58.7731L55.3011 16H54.0691ZM63.4354 16.112C62.6674 16.112 61.9954 15.9413 61.4194 15.6C60.854 15.2587 60.4114 14.7787 60.0914 14.16C59.782 13.5307 59.6274 12.7893 59.6274 11.936C59.6274 11.0933 59.782 10.3573 60.0914 9.728C60.4114 9.09867 60.854 8.61333 61.4194 8.272C61.9954 7.93067 62.6674 7.76 63.4354 7.76C64.2034 7.76 64.87 7.93067 65.4354 8.272C66.0114 8.61333 66.454 9.09867 66.7634 9.728C67.0834 10.3573 67.2434 11.0933 67.2434 11.936C67.2434 12.7893 67.0834 13.5307 66.7634 14.16C66.454 14.7787 66.0114 15.2587 65.4354 15.6C64.87 15.9413 64.2034 16.112 63.4354 16.112ZM63.4354 15.04C64.2247 15.04 64.8327 14.7787 65.2594 14.256C65.6967 13.7227 65.9154 12.9493 65.9154 11.936C65.9154 10.944 65.6967 10.1813 65.2594 9.648C64.822 9.11467 64.214 8.848 63.4354 8.848C62.6567 8.848 62.0434 9.11467 61.5954 9.648C61.158 10.1813 60.9394 10.944 60.9394 11.936C60.9394 12.9493 61.1527 13.7227 61.5794 14.256C62.0167 14.7787 62.6354 15.04 63.4354 15.04ZM72.1116 16.112C71.1516 16.112 70.4263 15.8453 69.9356 15.312C69.4556 14.7787 69.2156 13.9893 69.2156 12.944V7.952H70.5116V12.912C70.5116 13.6373 70.661 14.1707 70.9596 14.512C71.2583 14.8533 71.7116 15.024 72.3196 15.024C73.0343 15.024 73.6103 14.7947 74.0476 14.336C74.485 13.8773 74.7036 13.264 74.7036 12.496V7.952H75.9996V16H74.7356V14.256L74.9276 14.16C74.7143 14.8 74.3516 15.2853 73.8396 15.616C73.3383 15.9467 72.7623 16.112 72.1116 16.112ZM78.498 16V10.208C78.498 9.83467 78.4873 9.46133 78.466 9.088C78.4553 8.704 78.4233 8.32533 78.37 7.952H79.602L79.778 9.936L79.602 9.888C79.7513 9.184 80.0713 8.656 80.562 8.304C81.0633 7.94133 81.6233 7.76 82.242 7.76C82.3807 7.76 82.5087 7.77067 82.626 7.792C82.754 7.80267 82.8713 7.824 82.978 7.856L82.946 9.04C82.7007 8.95467 82.418 8.912 82.098 8.912C81.5433 8.912 81.0953 9.03467 80.754 9.28C80.4233 9.52533 80.178 9.84 80.018 10.224C79.8687 10.5973 79.794 10.992 79.794 11.408V16H78.498ZM84.2949 16V7.952H85.5909V16H84.2949ZM84.1669 4.544H85.7509V6.016H84.1669V4.544ZM86.9714 8.976V7.952H92.1394V8.976H86.9714ZM92.1074 14.848V15.952C91.926 16.0053 91.7447 16.0427 91.5634 16.064C91.3927 16.096 91.2007 16.112 90.9874 16.112C90.2407 16.112 89.6434 15.8987 89.1954 15.472C88.758 15.0453 88.5394 14.4053 88.5394 13.552V5.888L89.8354 5.424V13.376C89.8354 13.8027 89.894 14.1333 90.0114 14.368C90.1394 14.6027 90.31 14.768 90.5234 14.864C90.7367 14.9493 90.9767 14.992 91.2434 14.992C91.4034 14.992 91.5474 14.9813 91.6754 14.96C91.8034 14.9387 91.9474 14.9013 92.1074 14.848ZM100.293 15.04C99.9411 15.3707 99.4878 15.632 98.9331 15.824C98.3891 16.016 97.8291 16.112 97.2531 16.112C96.4211 16.112 95.7011 15.9467 95.0931 15.616C94.4958 15.2853 94.0318 14.8107 93.7011 14.192C93.3811 13.5627 93.2211 12.816 93.2211 11.952C93.2211 11.12 93.3811 10.3893 93.7011 9.76C94.0211 9.13067 94.4638 8.64 95.0291 8.288C95.6051 7.936 96.2665 7.76 97.0131 7.76C97.7278 7.76 98.3411 7.92 98.8531 8.24C99.3651 8.54933 99.7545 8.99733 100.021 9.584C100.298 10.1707 100.437 10.8747 100.437 11.696V11.936H94.3571V11.088H99.7011L99.2851 11.68C99.3065 10.7413 99.1198 10.0213 98.7251 9.52C98.3411 9.01867 97.7758 8.768 97.0291 8.768C96.2505 8.768 95.6371 9.04533 95.1891 9.6C94.7518 10.144 94.5331 10.9013 94.5331 11.872C94.5331 12.9173 94.7625 13.7067 95.2211 14.24C95.6905 14.7733 96.3731 15.04 97.2691 15.04C97.7385 15.04 98.1865 14.9653 98.6131 14.816C99.0505 14.656 99.4665 14.416 99.8611 14.096L100.293 15.04ZM105.124 16.112C103.77 16.112 102.698 15.7653 101.908 15.072L102.34 14.112C102.767 14.4427 103.204 14.688 103.652 14.848C104.111 14.9973 104.618 15.072 105.172 15.072C105.78 15.072 106.239 14.9707 106.548 14.768C106.868 14.5547 107.028 14.2507 107.028 13.856C107.028 13.536 106.922 13.2853 106.708 13.104C106.495 12.912 106.143 12.7573 105.652 12.64L104.292 12.32C103.62 12.1707 103.098 11.904 102.724 11.52C102.362 11.136 102.18 10.6773 102.18 10.144C102.18 9.67467 102.308 9.264 102.564 8.912C102.82 8.54933 103.178 8.26667 103.636 8.064C104.095 7.86133 104.639 7.76 105.268 7.76C105.834 7.76 106.367 7.85067 106.868 8.032C107.37 8.21333 107.791 8.47467 108.132 8.816L107.7 9.76C107.316 9.44 106.922 9.20533 106.516 9.056C106.122 8.896 105.706 8.816 105.268 8.816C104.692 8.816 104.244 8.928 103.924 9.152C103.615 9.376 103.46 9.68 103.46 10.064C103.46 10.3947 103.556 10.656 103.748 10.848C103.951 11.04 104.271 11.1893 104.708 11.296L106.068 11.632C106.826 11.792 107.38 12.0587 107.732 12.432C108.095 12.7947 108.276 13.2587 108.276 13.824C108.276 14.5173 107.994 15.072 107.428 15.488C106.863 15.904 106.095 16.112 105.124 16.112Z" fill="#898989"/>
<path opacity="0.24" fill-rule="evenodd" clip-rule="evenodd" d="M15.5882 17.1776C15.8046 18.4345 14.7118 19.2242 13.5793 18.6312C13.5793 18.6312 9.32641 16.4276 9.36773 16.4059L5.11778 18.6312C3.98444 19.2246 2.89263 18.4335 3.10892 17.1776C3.10892 17.1776 3.89901 12.4682 3.93244 12.5007L0.494159 9.16277C-0.422732 8.27264 -0.00467551 6.99401 1.26148 6.81077C1.26148 6.81077 6.00269 6.10388 5.98203 6.14558L8.107 1.85734C8.67367 0.713787 10.0239 0.714655 10.5901 1.85734C10.5901 1.85734 12.7302 6.1298 12.684 6.12312L17.4356 6.81077C18.7027 6.99415 19.1191 8.27331 18.2029 9.16277C18.2029 9.16277 14.7844 12.5102 14.7765 12.4644L15.5882 17.1776ZM5.09647 16.5573L8.50515 14.7718C9.0044 14.5104 9.6939 14.511 10.1919 14.7718L13.609 16.561L12.9495 12.7764C12.8542 12.2228 13.0679 11.5699 13.4708 11.1787L16.2242 8.50565L12.4175 7.95008C11.8593 7.8693 11.3019 7.46516 11.0528 6.96262L9.34969 3.52567L7.64427 6.96262C7.39464 7.46637 6.83646 7.8695 6.27962 7.95008L2.46854 8.50163L5.22632 11.1787C5.63022 11.5708 5.84269 12.2241 5.74757 12.7764L5.09647 16.5573Z" fill="black"/>
</svg>
