<svg width="86" height="20" viewBox="0 0 86 20" fill="none" xmlns="http://www.w3.org/2000/svg">
<path d="M40.448 16.128C39.3067 16.128 38.3253 15.8987 37.504 15.44C36.6933 14.9707 36.0693 14.304 35.632 13.44C35.2053 12.5653 34.992 11.5147 34.992 10.288C34.992 9.072 35.2053 8.032 35.632 7.168C36.0693 6.29333 36.688 5.62667 37.488 5.168C38.2987 4.70933 39.2533 4.48 40.352 4.48C41.1413 4.48 41.8667 4.60267 42.528 4.848C43.2 5.08267 43.7813 5.44 44.272 5.92L43.76 6.928C43.2053 6.45867 42.6613 6.12267 42.128 5.92C41.5947 5.70667 41.0027 5.6 40.352 5.6C39.0613 5.6 38.0693 6.00533 37.376 6.816C36.6933 7.616 36.352 8.77333 36.352 10.288C36.352 11.8347 36.704 13.0133 37.408 13.824C38.112 14.624 39.136 15.024 40.48 15.024C41.0347 15.024 41.5733 14.976 42.096 14.88C42.6293 14.7733 43.1093 14.6347 43.536 14.464L43.216 15.136V11.104H40.384V10.064H44.416V15.344C44.1173 15.504 43.7493 15.6427 43.312 15.76C42.8853 15.8773 42.4213 15.968 41.92 16.032C41.4293 16.096 40.9387 16.128 40.448 16.128ZM50.0391 16.112C49.3245 16.112 48.6951 15.9467 48.1511 15.616C47.6178 15.2747 47.2018 14.7947 46.9031 14.176C46.6151 13.5467 46.4711 12.8107 46.4711 11.968C46.4711 11.1253 46.6205 10.3893 46.9191 9.76C47.2178 9.13067 47.6338 8.64 48.1671 8.288C48.7111 7.936 49.3351 7.76 50.0391 7.76C50.7751 7.76 51.3991 7.94133 51.9111 8.304C52.4231 8.66667 52.7698 9.184 52.9511 9.856L52.7591 9.984V7.952H54.0391V16H52.7591V13.92L52.9511 14.016C52.7698 14.688 52.4231 15.2053 51.9111 15.568C51.3991 15.9307 50.7751 16.112 50.0391 16.112ZM50.2951 15.04C51.0845 15.04 51.6925 14.7733 52.1191 14.24C52.5458 13.696 52.7591 12.928 52.7591 11.936C52.7591 10.944 52.5405 10.1813 52.1031 9.648C51.6765 9.11467 51.0738 8.848 50.2951 8.848C49.5058 8.848 48.8871 9.12533 48.4391 9.68C48.0018 10.224 47.7831 10.9867 47.7831 11.968C47.7831 12.9493 48.0018 13.7067 48.4391 14.24C48.8871 14.7733 49.5058 15.04 50.2951 15.04ZM56.5449 16V10.208C56.5449 9.83467 56.5342 9.46133 56.5129 9.088C56.5022 8.704 56.4702 8.32533 56.4169 7.952H57.6489L57.7929 9.616L57.6329 9.728C57.8249 9.09867 58.1555 8.61333 58.6249 8.272C59.1049 7.93067 59.6702 7.76 60.3209 7.76C61.0995 7.76 61.7022 7.952 62.1289 8.336C62.5662 8.72 62.8435 9.30667 62.9609 10.096L62.5769 9.888C62.7475 9.23733 63.0889 8.72 63.6009 8.336C64.1235 7.952 64.7475 7.76 65.4729 7.76C66.3582 7.76 67.0249 8.02667 67.4729 8.56C67.9209 9.08267 68.1449 9.87733 68.1449 10.944V16H66.8489V11.008C66.8489 10.2613 66.7155 9.71733 66.4489 9.376C66.1822 9.024 65.7609 8.848 65.1849 8.848C64.5129 8.848 63.9795 9.07733 63.5849 9.536C63.2009 9.99467 63.0089 10.6187 63.0089 11.408V16H61.7129V11.008C61.7129 10.2613 61.5742 9.71733 61.2969 9.376C61.0302 9.024 60.6089 8.848 60.0329 8.848C59.3502 8.848 58.8115 9.07733 58.4169 9.536C58.0329 9.99467 57.8409 10.6187 57.8409 11.408V16H56.5449ZM77.1994 15.04C76.8474 15.3707 76.394 15.632 75.8394 15.824C75.2954 16.016 74.7354 16.112 74.1594 16.112C73.3274 16.112 72.6074 15.9467 71.9994 15.616C71.402 15.2853 70.938 14.8107 70.6074 14.192C70.2874 13.5627 70.1274 12.816 70.1274 11.952C70.1274 11.12 70.2874 10.3893 70.6074 9.76C70.9274 9.13067 71.37 8.64 71.9354 8.288C72.5114 7.936 73.1727 7.76 73.9194 7.76C74.634 7.76 75.2474 7.92 75.7594 8.24C76.2714 8.54933 76.6607 8.99733 76.9274 9.584C77.2047 10.1707 77.3434 10.8747 77.3434 11.696V11.936H71.2634V11.088H76.6074L76.1914 11.68C76.2127 10.7413 76.026 10.0213 75.6314 9.52C75.2474 9.01867 74.682 8.768 73.9354 8.768C73.1567 8.768 72.5434 9.04533 72.0954 9.6C71.658 10.144 71.4394 10.9013 71.4394 11.872C71.4394 12.9173 71.6687 13.7067 72.1274 14.24C72.5967 14.7733 73.2794 15.04 74.1754 15.04C74.6447 15.04 75.0927 14.9653 75.5194 14.816C75.9567 14.656 76.3727 14.416 76.7674 14.096L77.1994 15.04ZM82.0305 16.112C80.6758 16.112 79.6038 15.7653 78.8145 15.072L79.2465 14.112C79.6732 14.4427 80.1105 14.688 80.5585 14.848C81.0172 14.9973 81.5238 15.072 82.0785 15.072C82.6865 15.072 83.1452 14.9707 83.4545 14.768C83.7745 14.5547 83.9345 14.2507 83.9345 13.856C83.9345 13.536 83.8278 13.2853 83.6145 13.104C83.4012 12.912 83.0492 12.7573 82.5585 12.64L81.1985 12.32C80.5265 12.1707 80.0038 11.904 79.6305 11.52C79.2678 11.136 79.0865 10.6773 79.0865 10.144C79.0865 9.67467 79.2145 9.264 79.4705 8.912C79.7265 8.54933 80.0838 8.26667 80.5425 8.064C81.0012 7.86133 81.5452 7.76 82.1745 7.76C82.7398 7.76 83.2732 7.85067 83.7745 8.032C84.2758 8.21333 84.6972 8.47467 85.0385 8.816L84.6065 9.76C84.2225 9.44 83.8278 9.20533 83.4225 9.056C83.0278 8.896 82.6118 8.816 82.1745 8.816C81.5985 8.816 81.1505 8.928 80.8305 9.152C80.5212 9.376 80.3665 9.68 80.3665 10.064C80.3665 10.3947 80.4625 10.656 80.6545 10.848C80.8572 11.04 81.1772 11.1893 81.6145 11.296L82.9745 11.632C83.7318 11.792 84.2865 12.0587 84.6385 12.432C85.0012 12.7947 85.1825 13.2587 85.1825 13.824C85.1825 14.5173 84.8998 15.072 84.3345 15.488C83.7692 15.904 83.0012 16.112 82.0305 16.112Z" fill="#898989"/>
<path opacity="0.24" fill-rule="evenodd" clip-rule="evenodd" d="M12.9034 3.5233C12.1075 3.81096 11.7676 3.88899 10.9998 3.88899C10.232 3.88899 9.89216 3.81096 9.09627 3.5233L9.03409 3.50081C8.02943 3.13754 7.43229 3 6.44525 3C4.05055 3 1.85231 5.2826 0.942996 8.06478C0.245262 10.1996 0.0589768 11.567 0 14.5385C0.0582506 17.4925 1.34092 18.9856 3.66063 19C5.11467 18.9917 6.11219 18.363 7.03418 17.2208C7.17642 17.0446 7.56758 16.5231 7.60944 16.4673L7.61308 16.4625C8.56208 15.235 9.54325 14.5652 11.0027 14.5556C12.4564 14.5652 13.4376 15.235 14.3866 16.4625L14.3902 16.4673C14.4321 16.5231 14.8232 17.0446 14.9655 17.2208C15.8875 18.363 16.885 18.9917 18.3278 19C20.6587 18.9856 21.9414 17.4925 21.9997 14.5727C21.9407 11.567 21.7544 10.1996 21.0567 8.06478C20.1474 5.2826 17.9491 3 15.5544 3C14.5674 3 13.9702 3.13754 12.9656 3.50081L12.9034 3.5233ZM8.45597 5.18913C9.4419 5.54547 10.0813 5.66676 10.9998 5.66676C11.9183 5.66676 12.5578 5.54547 13.5437 5.18913L13.6061 5.16655C14.4238 4.87087 14.828 4.77778 15.5544 4.77778C16.9794 4.77778 18.6138 6.47492 19.309 8.60189C19.9465 10.5525 20.1108 11.7583 20.1667 14.5727C20.1263 16.5619 19.5656 17.2146 18.3273 17.2222C17.5536 17.2178 17.0194 16.8811 16.4091 16.125C16.3079 15.9996 16.0221 15.62 15.9044 15.4636L15.9043 15.4634L15.9041 15.4633L15.904 15.4631L15.9037 15.4627L15.9037 15.4627L15.8535 15.3961C14.5953 13.7687 13.164 12.7918 10.9941 12.7778C8.83563 12.7918 7.40436 13.7687 6.14621 15.3961L6.096 15.4626C5.97878 15.6183 5.69198 15.9994 5.59053 16.125C4.98023 16.8811 4.44608 17.2178 3.6611 17.2222C2.43407 17.2146 1.87336 16.5619 1.83299 14.5384C1.88885 11.7583 2.05311 10.5525 2.69066 8.60189C3.38582 6.47492 5.02024 4.77778 6.44525 4.77778C7.17164 4.77778 7.57582 4.87087 8.39355 5.16655L8.45597 5.18913ZM15.5832 8.77778C15.0769 8.77778 14.6665 8.37981 14.6665 7.88889C14.6665 7.39797 15.0769 7 15.5832 7C16.0894 7 16.4998 7.39797 16.4998 7.88889C16.4998 8.37981 16.0894 8.77778 15.5832 8.77778ZM14.6665 11.4444C14.6665 11.9354 15.0769 12.3333 15.5832 12.3333C16.0894 12.3333 16.4998 11.9354 16.4998 11.4444C16.4998 10.9535 16.0894 10.5556 15.5832 10.5556C15.0769 10.5556 14.6665 10.9535 14.6665 11.4444ZM17.4165 10.5556C16.9102 10.5556 16.4998 10.1576 16.4998 9.66667C16.4998 9.17575 16.9102 8.77778 17.4165 8.77778C17.9228 8.77778 18.3332 9.17575 18.3332 9.66667C18.3332 10.1576 17.9228 10.5556 17.4165 10.5556ZM12.8332 9.66667C12.8332 10.1576 13.2436 10.5556 13.7498 10.5556C14.2561 10.5556 14.6665 10.1576 14.6665 9.66667C14.6665 9.17575 14.2561 8.77778 13.7498 8.77778C13.2436 8.77778 12.8332 9.17575 12.8332 9.66667ZM6.4165 12.3333C4.89771 12.3333 3.6665 11.1394 3.6665 9.66667C3.6665 8.19391 4.89771 7 6.4165 7C7.93528 7 9.1665 8.19391 9.1665 9.66667C9.1665 11.1394 7.93528 12.3333 6.4165 12.3333ZM7.33316 9.66667C7.33316 10.1576 6.92276 10.5556 6.4165 10.5556C5.91024 10.5556 5.49983 10.1576 5.49983 9.66667C5.49983 9.17575 5.91024 8.77778 6.4165 8.77778C6.92276 8.77778 7.33316 9.17575 7.33316 9.66667Z" fill="black"/>
</svg>
