<svg width="87" height="20" viewBox="0 0 87 20" fill="none" xmlns="http://www.w3.org/2000/svg">
<path d="M42.536 16V4.608H43.848V16H42.536ZM34.408 16V4.608H35.704V16H34.408ZM35.016 10.768V9.664H43.272V10.768H35.016ZM46.498 16V7.952H47.794V16H46.498ZM46.37 4.544H47.954V6.016H46.37V4.544ZM53.0305 16.112C51.6758 16.112 50.6038 15.7653 49.8145 15.072L50.2465 14.112C50.6732 14.4427 51.1105 14.688 51.5585 14.848C52.0172 14.9973 52.5238 15.072 53.0785 15.072C53.6865 15.072 54.1452 14.9707 54.4545 14.768C54.7745 14.5547 54.9345 14.2507 54.9345 13.856C54.9345 13.536 54.8278 13.2853 54.6145 13.104C54.4012 12.912 54.0492 12.7573 53.5585 12.64L52.1985 12.32C51.5265 12.1707 51.0038 11.904 50.6305 11.52C50.2678 11.136 50.0865 10.6773 50.0865 10.144C50.0865 9.67467 50.2145 9.264 50.4705 8.912C50.7265 8.54933 51.0838 8.26667 51.5425 8.064C52.0012 7.86133 52.5452 7.76 53.1745 7.76C53.7398 7.76 54.2732 7.85067 54.7745 8.032C55.2758 8.21333 55.6972 8.47467 56.0385 8.816L55.6065 9.76C55.2225 9.44 54.8278 9.20533 54.4225 9.056C54.0278 8.896 53.6118 8.816 53.1745 8.816C52.5985 8.816 52.1505 8.928 51.8305 9.152C51.5212 9.376 51.3665 9.68 51.3665 10.064C51.3665 10.3947 51.4625 10.656 51.6545 10.848C51.8572 11.04 52.1772 11.1893 52.6145 11.296L53.9745 11.632C54.7318 11.792 55.2865 12.0587 55.6385 12.432C56.0012 12.7947 56.1825 13.2587 56.1825 13.824C56.1825 14.5173 55.8998 15.072 55.3345 15.488C54.7692 15.904 54.0012 16.112 53.0305 16.112ZM57.0339 8.976V7.952H62.2019V8.976H57.0339ZM62.1699 14.848V15.952C61.9885 16.0053 61.8072 16.0427 61.6259 16.064C61.4552 16.096 61.2632 16.112 61.0499 16.112C60.3032 16.112 59.7059 15.8987 59.2579 15.472C58.8205 15.0453 58.6019 14.4053 58.6019 13.552V5.888L59.8979 5.424V13.376C59.8979 13.8027 59.9565 14.1333 60.0739 14.368C60.2019 14.6027 60.3725 14.768 60.5859 14.864C60.7992 14.9493 61.0392 14.992 61.3059 14.992C61.4659 14.992 61.6099 14.9813 61.7379 14.96C61.8659 14.9387 62.0099 14.9013 62.1699 14.848ZM67.0916 16.112C66.3236 16.112 65.6516 15.9413 65.0756 15.6C64.5103 15.2587 64.0676 14.7787 63.7476 14.16C63.4383 13.5307 63.2836 12.7893 63.2836 11.936C63.2836 11.0933 63.4383 10.3573 63.7476 9.728C64.0676 9.09867 64.5103 8.61333 65.0756 8.272C65.6516 7.93067 66.3236 7.76 67.0916 7.76C67.8596 7.76 68.5263 7.93067 69.0916 8.272C69.6676 8.61333 70.1103 9.09867 70.4196 9.728C70.7396 10.3573 70.8996 11.0933 70.8996 11.936C70.8996 12.7893 70.7396 13.5307 70.4196 14.16C70.1103 14.7787 69.6676 15.2587 69.0916 15.6C68.5263 15.9413 67.8596 16.112 67.0916 16.112ZM67.0916 15.04C67.881 15.04 68.489 14.7787 68.9156 14.256C69.353 13.7227 69.5716 12.9493 69.5716 11.936C69.5716 10.944 69.353 10.1813 68.9156 9.648C68.4783 9.11467 67.8703 8.848 67.0916 8.848C66.313 8.848 65.6996 9.11467 65.2516 9.648C64.8143 10.1813 64.5956 10.944 64.5956 11.936C64.5956 12.9493 64.809 13.7227 65.2356 14.256C65.673 14.7787 66.2916 15.04 67.0916 15.04ZM72.9199 16V10.208C72.9199 9.83467 72.9092 9.46133 72.8879 9.088C72.8772 8.704 72.8452 8.32533 72.7919 7.952H74.0239L74.1999 9.936L74.0239 9.888C74.1732 9.184 74.4932 8.656 74.9839 8.304C75.4852 7.94133 76.0452 7.76 76.6639 7.76C76.8025 7.76 76.9305 7.77067 77.0479 7.792C77.1759 7.80267 77.2932 7.824 77.3999 7.856L77.3679 9.04C77.1225 8.95467 76.8399 8.912 76.5199 8.912C75.9652 8.912 75.5172 9.03467 75.1759 9.28C74.8452 9.52533 74.5999 9.84 74.4399 10.224C74.2905 10.5973 74.2159 10.992 74.2159 11.408V16H72.9199ZM78.8171 19.632L78.5451 18.624C79.0358 18.5067 79.4465 18.368 79.7771 18.208C80.1185 18.0587 80.4011 17.8613 80.6251 17.616C80.8598 17.3707 81.0625 17.0453 81.2331 16.64L81.7451 15.456L82.0331 15.056L84.9771 7.952H86.2731L82.5131 16.736C82.2251 17.3867 81.8998 17.904 81.5371 18.288C81.1745 18.6827 80.7638 18.9813 80.3051 19.184C79.8571 19.3867 79.3611 19.536 78.8171 19.632ZM81.7611 16.416L78.1451 7.952H79.5051L82.4171 15.056L81.7611 16.416Z" fill="#898989"/>
<path opacity="0.24" fill-rule="evenodd" clip-rule="evenodd" d="M6.36364 1C4.85741 1 3.63636 2.20746 3.63636 3.69744V13.6H0.909091C0.407014 13.6 0 14.0042 0 14.4991V16.3C0 17.7912 1.22411 19 2.72727 19H13.6364C15.1423 19 16.3636 17.7944 16.3636 16.3045V6.4H19.0909C19.5965 6.4 20 5.99813 20 5.5024V3.70439C20 2.21111 18.7799 1 17.2727 1H6.36364ZM5.3 17.2C5.40009 16.9193 5.45455 16.6172 5.45455 16.3026V3.69744C5.45455 3.20206 5.86107 2.8 6.36364 2.8C6.86402 2.8 7.27273 3.2043 7.27273 3.7V5.50094C7.27273 5.99748 7.67624 6.4 8.18182 6.4H14.5455V16.3045C14.5455 16.7991 14.1394 17.2 13.6364 17.2H5.3ZM1.81818 15.4V16.3C1.81818 16.7957 2.22689 17.2 2.72727 17.2C3.22984 17.2 3.63636 16.7979 3.63636 16.3026V15.4H1.81818ZM9.09091 4.6V3.7C9.09091 3.38443 9.03609 3.0815 8.9354 2.8H17.2727C17.7747 2.8 18.1818 3.20414 18.1818 3.70439V4.6H9.09091Z" fill="black"/>
</svg>
