<svg width="78" height="20" viewBox="0 0 78 20" fill="none" xmlns="http://www.w3.org/2000/svg">
<path d="M42.536 16V4.608H43.848V16H42.536ZM34.408 16V4.608H35.704V16H34.408ZM35.016 10.768V9.664H43.272V10.768H35.016ZM49.826 16.112C49.058 16.112 48.386 15.9413 47.81 15.6C47.2447 15.2587 46.802 14.7787 46.482 14.16C46.1727 13.5307 46.018 12.7893 46.018 11.936C46.018 11.0933 46.1727 10.3573 46.482 9.728C46.802 9.09867 47.2447 8.61333 47.81 8.272C48.386 7.93067 49.058 7.76 49.826 7.76C50.594 7.76 51.2607 7.93067 51.826 8.272C52.402 8.61333 52.8447 9.09867 53.154 9.728C53.474 10.3573 53.634 11.0933 53.634 11.936C53.634 12.7893 53.474 13.5307 53.154 14.16C52.8447 14.7787 52.402 15.2587 51.826 15.6C51.2607 15.9413 50.594 16.112 49.826 16.112ZM49.826 15.04C50.6153 15.04 51.2233 14.7787 51.65 14.256C52.0873 13.7227 52.306 12.9493 52.306 11.936C52.306 10.944 52.0873 10.1813 51.65 9.648C51.2127 9.11467 50.6047 8.848 49.826 8.848C49.0473 8.848 48.434 9.11467 47.986 9.648C47.5487 10.1813 47.33 10.944 47.33 11.936C47.33 12.9493 47.5433 13.7227 47.97 14.256C48.4073 14.7787 49.026 15.04 49.826 15.04ZM55.6543 16V10.208C55.6543 9.83467 55.6436 9.46133 55.6223 9.088C55.6116 8.704 55.5796 8.32533 55.5263 7.952H56.7582L56.9023 9.616L56.7423 9.728C56.9343 9.09867 57.2649 8.61333 57.7343 8.272C58.2143 7.93067 58.7796 7.76 59.4303 7.76C60.2089 7.76 60.8116 7.952 61.2383 8.336C61.6756 8.72 61.9529 9.30667 62.0703 10.096L61.6863 9.888C61.8569 9.23733 62.1983 8.72 62.7103 8.336C63.2329 7.952 63.8569 7.76 64.5823 7.76C65.4676 7.76 66.1343 8.02667 66.5823 8.56C67.0303 9.08267 67.2543 9.87733 67.2543 10.944V16H65.9583V11.008C65.9583 10.2613 65.8249 9.71733 65.5583 9.376C65.2916 9.024 64.8703 8.848 64.2943 8.848C63.6223 8.848 63.0889 9.07733 62.6943 9.536C62.3103 9.99467 62.1183 10.6187 62.1183 11.408V16H60.8223V11.008C60.8223 10.2613 60.6836 9.71733 60.4063 9.376C60.1396 9.024 59.7183 8.848 59.1423 8.848C58.4596 8.848 57.9209 9.07733 57.5263 9.536C57.1423 9.99467 56.9503 10.6187 56.9503 11.408V16H55.6543ZM76.3088 15.04C75.9568 15.3707 75.5034 15.632 74.9488 15.824C74.4048 16.016 73.8448 16.112 73.2688 16.112C72.4368 16.112 71.7168 15.9467 71.1088 15.616C70.5114 15.2853 70.0474 14.8107 69.7168 14.192C69.3968 13.5627 69.2368 12.816 69.2368 11.952C69.2368 11.12 69.3968 10.3893 69.7168 9.76C70.0368 9.13067 70.4794 8.64 71.0448 8.288C71.6208 7.936 72.2821 7.76 73.0288 7.76C73.7434 7.76 74.3568 7.92 74.8688 8.24C75.3808 8.54933 75.7701 8.99733 76.0368 9.584C76.3141 10.1707 76.4528 10.8747 76.4528 11.696V11.936H70.3728V11.088H75.7168L75.3008 11.68C75.3221 10.7413 75.1354 10.0213 74.7408 9.52C74.3568 9.01867 73.7914 8.768 73.0448 8.768C72.2661 8.768 71.6528 9.04533 71.2048 9.6C70.7674 10.144 70.5488 10.9013 70.5488 11.872C70.5488 12.9173 70.7781 13.7067 71.2368 14.24C71.7061 14.7733 72.3888 15.04 73.2848 15.04C73.7541 15.04 74.2021 14.9653 74.6288 14.816C75.0661 14.656 75.4821 14.416 75.8768 14.096L76.3088 15.04Z" fill="#FF0000"/>
<path fill-rule="evenodd" clip-rule="evenodd" d="M1.55192 10.5921C1.19689 10.9455 0.621289 10.9455 0.266267 10.5921C-0.0887555 10.2388 -0.0887555 9.66595 0.266267 9.31262L9.35718 0.264999C9.7122 -0.0883329 10.2878 -0.0883329 10.6428 0.264999L19.7337 9.31262C20.0888 9.66595 20.0888 10.2388 19.7337 10.5921C19.3787 10.9455 18.8031 10.9455 18.4481 10.5921L18.1818 10.3274V17.1945C18.1818 18.1933 17.3689 19 16.3628 19H3.63716C2.63348 19 1.81818 18.1934 1.81818 17.1945V10.3274L1.55192 10.5921ZM3.63716 17.1905L6.36364 17.191V11.7597C6.36364 11.2612 6.77023 10.8571 7.27003 10.8571H12.73C13.2306 10.8571 13.6364 11.2609 13.6364 11.7597V17.1929L16.3636 17.1945V8.51944L10 2.19166L3.63632 8.51948C3.63613 10.2308 3.63716 17.1905 3.63716 17.1905ZM11.8182 12.6653V17.1923L8.18182 17.1914V12.6667L11.8182 12.6653Z" fill="#FF0000"/>
</svg>
