<svg width="86" height="20" viewBox="0 0 86 20" fill="none" xmlns="http://www.w3.org/2000/svg">
<path d="M34.408 16V4.608H35.72V14.88H41.432V16H34.408ZM42.9668 16V7.952H44.2628V16H42.9668ZM42.8388 4.544H44.4228V6.016H42.8388V4.544ZM46.7793 16V4.224H48.0753V10.016L47.8993 9.856C48.0806 9.19467 48.4273 8.68267 48.9393 8.32C49.4513 7.94667 50.0699 7.76 50.7953 7.76C51.5099 7.76 52.1339 7.93067 52.6673 8.272C53.2006 8.61333 53.6166 9.09333 53.9153 9.712C54.2246 10.3307 54.3793 11.0613 54.3793 11.904C54.3793 12.7467 54.2246 13.488 53.9153 14.128C53.6166 14.7573 53.1953 15.248 52.6513 15.6C52.1179 15.9413 51.4993 16.112 50.7953 16.112C50.0699 16.112 49.4513 15.9307 48.9393 15.568C48.4273 15.2053 48.0806 14.688 47.8993 14.016L48.0753 13.84V16H46.7793ZM50.5553 15.04C51.3339 15.04 51.9419 14.768 52.3793 14.224C52.8166 13.6693 53.0353 12.896 53.0353 11.904C53.0353 10.9333 52.8166 10.1813 52.3793 9.648C51.9419 9.11467 51.3339 8.848 50.5553 8.848C49.7553 8.848 49.1419 9.12 48.7153 9.664C48.2886 10.1973 48.0753 10.9547 48.0753 11.936C48.0753 12.928 48.2886 13.696 48.7153 14.24C49.1419 14.7733 49.7553 15.04 50.5553 15.04ZM56.373 16V10.208C56.373 9.83467 56.3623 9.46133 56.341 9.088C56.3303 8.704 56.2983 8.32533 56.245 7.952H57.477L57.653 9.936L57.477 9.888C57.6263 9.184 57.9463 8.656 58.437 8.304C58.9383 7.94133 59.4983 7.76 60.117 7.76C60.2557 7.76 60.3837 7.77067 60.501 7.792C60.629 7.80267 60.7463 7.824 60.853 7.856L60.821 9.04C60.5757 8.95467 60.293 8.912 59.973 8.912C59.4183 8.912 58.9703 9.03467 58.629 9.28C58.2983 9.52533 58.053 9.84 57.893 10.224C57.7437 10.5973 57.669 10.992 57.669 11.408V16H56.373ZM65.1016 16.112C64.387 16.112 63.7576 15.9467 63.2136 15.616C62.6803 15.2747 62.2643 14.7947 61.9656 14.176C61.6776 13.5467 61.5336 12.8107 61.5336 11.968C61.5336 11.1253 61.683 10.3893 61.9816 9.76C62.2803 9.13067 62.6963 8.64 63.2296 8.288C63.7736 7.936 64.3976 7.76 65.1016 7.76C65.8376 7.76 66.4616 7.94133 66.9736 8.304C67.4856 8.66667 67.8323 9.184 68.0136 9.856L67.8216 9.984V7.952H69.1016V16H67.8216V13.92L68.0136 14.016C67.8323 14.688 67.4856 15.2053 66.9736 15.568C66.4616 15.9307 65.8376 16.112 65.1016 16.112ZM65.3576 15.04C66.147 15.04 66.755 14.7733 67.1816 14.24C67.6083 13.696 67.8216 12.928 67.8216 11.936C67.8216 10.944 67.603 10.1813 67.1656 9.648C66.739 9.11467 66.1363 8.848 65.3576 8.848C64.5683 8.848 63.9496 9.12533 63.5016 9.68C63.0643 10.224 62.8456 10.9867 62.8456 11.968C62.8456 12.9493 63.0643 13.7067 63.5016 14.24C63.9496 14.7733 64.5683 15.04 65.3576 15.04ZM71.6074 16V10.208C71.6074 9.83467 71.5967 9.46133 71.5754 9.088C71.5647 8.704 71.5327 8.32533 71.4794 7.952H72.7114L72.8874 9.936L72.7114 9.888C72.8607 9.184 73.1807 8.656 73.6714 8.304C74.1727 7.94133 74.7327 7.76 75.3514 7.76C75.49 7.76 75.618 7.77067 75.7354 7.792C75.8634 7.80267 75.9807 7.824 76.0874 7.856L76.0554 9.04C75.81 8.95467 75.5274 8.912 75.2074 8.912C74.6527 8.912 74.2047 9.03467 73.8634 9.28C73.5327 9.52533 73.2874 9.84 73.1274 10.224C72.978 10.5973 72.9034 10.992 72.9034 11.408V16H71.6074ZM77.5046 19.632L77.2326 18.624C77.7233 18.5067 78.134 18.368 78.4646 18.208C78.806 18.0587 79.0886 17.8613 79.3126 17.616C79.5473 17.3707 79.75 17.0453 79.9206 16.64L80.4326 15.456L80.7206 15.056L83.6646 7.952H84.9606L81.2006 16.736C80.9126 17.3867 80.5873 17.904 80.2246 18.288C79.862 18.6827 79.4513 18.9813 78.9926 19.184C78.5446 19.3867 78.0486 19.536 77.5046 19.632ZM80.4486 16.416L76.8326 7.952H78.1926L81.1046 15.056L80.4486 16.416Z" fill="#898989"/>
<path opacity="0.24" fill-rule="evenodd" clip-rule="evenodd" d="M1.81377 2C0.818072 2 0 2.79398 0 3.77341V16.2266C0 17.2066 0.814396 18 1.819 18H18.181C19.185 18 20 17.2042 20 16.2225V6.44412C20 5.4608 19.1843 4.66667 18.1781 4.66667H10.0034L8.71574 2.74282C8.441 2.33234 7.81071 2 7.30762 2H1.81377ZM18.181 16.2222L1.81818 16.2266L1.81377 3.77778L7.27273 3.78212L8.48211 5.64019C8.818 6.14203 9.39005 6.44444 10.0034 6.44444L18.1818 6.44412L18.181 16.2222Z" fill="black"/>
</svg>
