<svg width="123" height="20" viewBox="0 0 123 20" fill="none" xmlns="http://www.w3.org/2000/svg">
<path d="M33.408 16V4.608H34.72V14.88H40.432V16H33.408ZM41.9668 16V7.952H43.2628V16H41.9668ZM41.8388 4.544H43.4228V6.016H41.8388V4.544ZM51.2033 16L46.8193 11.888L50.8673 7.968H52.5153L48.0353 12.256L48.0833 11.44L52.8993 16H51.2033ZM45.7793 16V4.224H47.0753V16H45.7793ZM60.465 15.04C60.113 15.3707 59.6597 15.632 59.105 15.824C58.561 16.016 58.001 16.112 57.425 16.112C56.593 16.112 55.873 15.9467 55.265 15.616C54.6677 15.2853 54.2037 14.8107 53.873 14.192C53.553 13.5627 53.393 12.816 53.393 11.952C53.393 11.12 53.553 10.3893 53.873 9.76C54.193 9.13067 54.6357 8.64 55.201 8.288C55.777 7.936 56.4383 7.76 57.185 7.76C57.8997 7.76 58.513 7.92 59.025 8.24C59.537 8.54933 59.9263 8.99733 60.193 9.584C60.4703 10.1707 60.609 10.8747 60.609 11.696V11.936H54.529V11.088H59.873L59.457 11.68C59.4783 10.7413 59.2917 10.0213 58.897 9.52C58.513 9.01867 57.9477 8.768 57.201 8.768C56.4223 8.768 55.809 9.04533 55.361 9.6C54.9237 10.144 54.705 10.9013 54.705 11.872C54.705 12.9173 54.9343 13.7067 55.393 14.24C55.8623 14.7733 56.545 15.04 57.441 15.04C57.9103 15.04 58.3583 14.9653 58.785 14.816C59.2223 14.656 59.6383 14.416 60.033 14.096L60.465 15.04ZM69.6641 16H68.3841V13.84L68.5761 14.016C68.3948 14.688 68.0481 15.2053 67.5361 15.568C67.0241 15.9307 66.4001 16.112 65.6641 16.112C64.9601 16.112 64.3361 15.9413 63.7921 15.6C63.2588 15.248 62.8428 14.7573 62.5441 14.128C62.2455 13.488 62.0961 12.7467 62.0961 11.904C62.0961 11.0613 62.2401 10.3307 62.5281 9.712C62.8268 9.09333 63.2428 8.61333 63.7761 8.272C64.3201 7.93067 64.9495 7.76 65.6641 7.76C66.4001 7.76 67.0241 7.94667 67.5361 8.32C68.0481 8.68267 68.3948 9.19467 68.5761 9.856L68.3681 10.016V4.224H69.6641V16ZM65.9201 15.04C66.6988 15.04 67.3015 14.7733 67.7281 14.24C68.1655 13.696 68.3841 12.928 68.3841 11.936C68.3841 10.9547 68.1708 10.1973 67.7441 9.664C67.3175 9.12 66.7095 8.848 65.9201 8.848C65.1308 8.848 64.5121 9.11467 64.0641 9.648C63.6268 10.1813 63.4081 10.9333 63.4081 11.904C63.4081 12.896 63.6268 13.6693 64.0641 14.224C64.5121 14.768 65.1308 15.04 65.9201 15.04ZM78.7098 16L75.2858 7.968H76.6458L79.5578 15.056H79.1738L82.1178 7.968H83.4138L79.9418 16H78.7098ZM84.8418 16V7.952H86.1378V16H84.8418ZM84.7138 4.544H86.2978V6.016H84.7138V4.544ZM95.7423 16H94.4623V13.84L94.6543 14.016C94.4729 14.688 94.1263 15.2053 93.6143 15.568C93.1023 15.9307 92.4783 16.112 91.7423 16.112C91.0383 16.112 90.4143 15.9413 89.8703 15.6C89.3369 15.248 88.9209 14.7573 88.6223 14.128C88.3236 13.488 88.1743 12.7467 88.1743 11.904C88.1743 11.0613 88.3183 10.3307 88.6063 9.712C88.9049 9.09333 89.3209 8.61333 89.8543 8.272C90.3983 7.93067 91.0276 7.76 91.7423 7.76C92.4783 7.76 93.1023 7.94667 93.6143 8.32C94.1263 8.68267 94.4729 9.19467 94.6543 9.856L94.4463 10.016V4.224H95.7423V16ZM91.9983 15.04C92.7769 15.04 93.3796 14.7733 93.8063 14.24C94.2436 13.696 94.4623 12.928 94.4623 11.936C94.4623 10.9547 94.2489 10.1973 93.8223 9.664C93.3956 9.12 92.7876 8.848 91.9983 8.848C91.2089 8.848 90.5903 9.11467 90.1423 9.648C89.7049 10.1813 89.4863 10.9333 89.4863 11.904C89.4863 12.896 89.7049 13.6693 90.1423 14.224C90.5903 14.768 91.2089 15.04 91.9983 15.04ZM104.84 15.04C104.488 15.3707 104.035 15.632 103.48 15.824C102.936 16.016 102.376 16.112 101.8 16.112C100.968 16.112 100.248 15.9467 99.64 15.616C99.0427 15.2853 98.5787 14.8107 98.248 14.192C97.928 13.5627 97.768 12.816 97.768 11.952C97.768 11.12 97.928 10.3893 98.248 9.76C98.568 9.13067 99.0107 8.64 99.576 8.288C100.152 7.936 100.813 7.76 101.56 7.76C102.275 7.76 102.888 7.92 103.4 8.24C103.912 8.54933 104.301 8.99733 104.568 9.584C104.845 10.1707 104.984 10.8747 104.984 11.696V11.936H98.904V11.088H104.248L103.832 11.68C103.853 10.7413 103.667 10.0213 103.272 9.52C102.888 9.01867 102.323 8.768 101.576 8.768C100.797 8.768 100.184 9.04533 99.736 9.6C99.2987 10.144 99.08 10.9013 99.08 11.872C99.08 12.9173 99.3093 13.7067 99.768 14.24C100.237 14.7733 100.92 15.04 101.816 15.04C102.285 15.04 102.733 14.9653 103.16 14.816C103.597 14.656 104.013 14.416 104.408 14.096L104.84 15.04ZM110.279 16.112C109.511 16.112 108.839 15.9413 108.263 15.6C107.698 15.2587 107.255 14.7787 106.935 14.16C106.626 13.5307 106.471 12.7893 106.471 11.936C106.471 11.0933 106.626 10.3573 106.935 9.728C107.255 9.09867 107.698 8.61333 108.263 8.272C108.839 7.93067 109.511 7.76 110.279 7.76C111.047 7.76 111.714 7.93067 112.279 8.272C112.855 8.61333 113.298 9.09867 113.607 9.728C113.927 10.3573 114.087 11.0933 114.087 11.936C114.087 12.7893 113.927 13.5307 113.607 14.16C113.298 14.7787 112.855 15.2587 112.279 15.6C111.714 15.9413 111.047 16.112 110.279 16.112ZM110.279 15.04C111.068 15.04 111.676 14.7787 112.103 14.256C112.54 13.7227 112.759 12.9493 112.759 11.936C112.759 10.944 112.54 10.1813 112.103 9.648C111.666 9.11467 111.058 8.848 110.279 8.848C109.5 8.848 108.887 9.11467 108.439 9.648C108.002 10.1813 107.783 10.944 107.783 11.936C107.783 12.9493 107.996 13.7227 108.423 14.256C108.86 14.7787 109.479 15.04 110.279 15.04ZM118.827 16.112C117.473 16.112 116.401 15.7653 115.611 15.072L116.043 14.112C116.47 14.4427 116.907 14.688 117.355 14.848C117.814 14.9973 118.321 15.072 118.875 15.072C119.483 15.072 119.942 14.9707 120.251 14.768C120.571 14.5547 120.731 14.2507 120.731 13.856C120.731 13.536 120.625 13.2853 120.411 13.104C120.198 12.912 119.846 12.7573 119.355 12.64L117.995 12.32C117.323 12.1707 116.801 11.904 116.427 11.52C116.065 11.136 115.883 10.6773 115.883 10.144C115.883 9.67467 116.011 9.264 116.267 8.912C116.523 8.54933 116.881 8.26667 117.339 8.064C117.798 7.86133 118.342 7.76 118.971 7.76C119.537 7.76 120.07 7.85067 120.571 8.032C121.073 8.21333 121.494 8.47467 121.835 8.816L121.403 9.76C121.019 9.44 120.625 9.20533 120.219 9.056C119.825 8.896 119.409 8.816 118.971 8.816C118.395 8.816 117.947 8.928 117.627 9.152C117.318 9.376 117.163 9.68 117.163 10.064C117.163 10.3947 117.259 10.656 117.451 10.848C117.654 11.04 117.974 11.1893 118.411 11.296L119.771 11.632C120.529 11.792 121.083 12.0587 121.435 12.432C121.798 12.7947 121.979 13.2587 121.979 13.824C121.979 14.5173 121.697 15.072 121.131 15.488C120.566 15.904 119.798 16.112 118.827 16.112Z" fill="#898989"/>
<path opacity="0.24" fill-rule="evenodd" clip-rule="evenodd" d="M12.6 1C11.217 1 9.95536 1.53087 9 2.40391C8.04464 1.53087 6.78304 1 5.4 1C2.41766 1 0 3.46848 0 6.51351C0 10.9579 4.48072 15.2534 8.62049 17.7595C8.83009 17.8923 9.17315 17.8905 9.38216 17.7577C13.4946 15.2432 18 10.9576 18 6.51351C18 3.46848 15.5823 1 12.6 1ZM9.00509 15.8252C4.5546 12.8546 1.8 9.38441 1.8 6.51351C1.8 4.48349 3.41177 2.83784 5.4 2.83784C6.29958 2.83784 7.14325 3.17359 7.79955 3.77335L8.66561 4.56478C8.8528 4.73585 9.14971 4.73355 9.33439 4.56478L10.2004 3.77335C10.8567 3.17359 11.7004 2.83784 12.6 2.83784C14.5882 2.83784 16.2 4.48349 16.2 6.51351C16.2 9.45823 13.4557 12.8546 9.00509 15.8252Z" fill="black"/>
</svg>
