<svg width="75" height="20" viewBox="0 0 75 20" fill="none" xmlns="http://www.w3.org/2000/svg">
<path d="M33.408 16V4.608H34.496L39.12 15.12H38.512L43.088 4.608H44.176V16H42.96V6.336L43.456 6.4L39.264 16H38.336L34.08 6.4L34.608 6.336L34.624 16H33.408ZM49.6741 16.112C48.7141 16.112 47.9888 15.8453 47.4981 15.312C47.0181 14.7787 46.7781 13.9893 46.7781 12.944V7.952H48.0741V12.912C48.0741 13.6373 48.2235 14.1707 48.5221 14.512C48.8208 14.8533 49.2741 15.024 49.8821 15.024C50.5968 15.024 51.1728 14.7947 51.6101 14.336C52.0475 13.8773 52.2661 13.264 52.2661 12.496V7.952H53.5621V16H52.2981V14.256L52.4901 14.16C52.2768 14.8 51.9141 15.2853 51.4021 15.616C50.9008 15.9467 50.3248 16.112 49.6741 16.112ZM58.7805 16.112C57.4258 16.112 56.3538 15.7653 55.5645 15.072L55.9965 14.112C56.4232 14.4427 56.8605 14.688 57.3085 14.848C57.7672 14.9973 58.2738 15.072 58.8285 15.072C59.4365 15.072 59.8952 14.9707 60.2045 14.768C60.5245 14.5547 60.6845 14.2507 60.6845 13.856C60.6845 13.536 60.5778 13.2853 60.3645 13.104C60.1512 12.912 59.7992 12.7573 59.3085 12.64L57.9485 12.32C57.2765 12.1707 56.7538 11.904 56.3805 11.52C56.0178 11.136 55.8365 10.6773 55.8365 10.144C55.8365 9.67467 55.9645 9.264 56.2205 8.912C56.4765 8.54933 56.8338 8.26667 57.2925 8.064C57.7512 7.86133 58.2952 7.76 58.9245 7.76C59.4898 7.76 60.0232 7.85067 60.5245 8.032C61.0258 8.21333 61.4472 8.47467 61.7885 8.816L61.3565 9.76C60.9725 9.44 60.5778 9.20533 60.1725 9.056C59.7778 8.896 59.3618 8.816 58.9245 8.816C58.3485 8.816 57.9005 8.928 57.5805 9.152C57.2712 9.376 57.1165 9.68 57.1165 10.064C57.1165 10.3947 57.2125 10.656 57.4045 10.848C57.6072 11.04 57.9272 11.1893 58.3645 11.296L59.7245 11.632C60.4818 11.792 61.0365 12.0587 61.3885 12.432C61.7512 12.7947 61.9325 13.2587 61.9325 13.824C61.9325 14.5173 61.6498 15.072 61.0845 15.488C60.5192 15.904 59.7512 16.112 58.7805 16.112ZM63.998 16V7.952H65.294V16H63.998ZM63.87 4.544H65.454V6.016H63.87V4.544ZM71.1865 16.112C70.3972 16.112 69.7145 15.9413 69.1385 15.6C68.5625 15.2587 68.1145 14.7787 67.7945 14.16C67.4852 13.5413 67.3305 12.8107 67.3305 11.968C67.3305 11.136 67.4905 10.4053 67.8105 9.776C68.1305 9.136 68.5838 8.64 69.1705 8.288C69.7572 7.936 70.4505 7.76 71.2505 7.76C71.7945 7.76 72.3172 7.856 72.8185 8.048C73.3305 8.22933 73.7518 8.48533 74.0825 8.816L73.6505 9.776C73.2558 9.46667 72.8665 9.23733 72.4825 9.088C72.1092 8.928 71.7198 8.848 71.3145 8.848C70.5038 8.848 69.8585 9.12 69.3785 9.664C68.9092 10.208 68.6745 10.976 68.6745 11.968C68.6745 12.9493 68.9092 13.7067 69.3785 14.24C69.8478 14.7733 70.4932 15.04 71.3145 15.04C71.7092 15.04 72.0985 14.9653 72.4825 14.816C72.8665 14.656 73.2558 14.4213 73.6505 14.112L74.0825 15.072C73.7412 15.392 73.3092 15.648 72.7865 15.84C72.2745 16.0213 71.7412 16.112 71.1865 16.112Z" fill="#898989"/>
<path opacity="0.24" fill-rule="evenodd" clip-rule="evenodd" d="M14.85 17.2729C16.5897 17.2729 18 15.8484 18 14.0911V0.92929C18.0016 0.854306 17.9939 0.777902 17.9762 0.701509C17.8626 0.212723 17.3782 -0.0904878 16.8943 0.0242693L5.22802 2.79094C4.82628 2.88621 4.55117 3.23961 4.5 3.63657V13.9428C4.09084 13.7464 3.63312 13.6366 3.15 13.6366C1.4103 13.6366 0 15.0611 0 16.8184C0 18.5757 1.4103 20.0002 3.15 20.0002C4.8897 20.0002 6.3 18.5757 6.3 16.8184V8.0407L16.2 5.6929V11.2155C15.7908 11.0192 15.3331 10.9093 14.85 10.9093C13.1103 10.9093 11.7 12.3338 11.7 14.0911C11.7 15.8484 13.1103 17.2729 14.85 17.2729ZM6.3 6.17308V4.40434L16.2 2.05654V3.82528L6.3 6.17308ZM16.2 14.0911C16.2 13.338 15.5956 12.7275 14.85 12.7275C14.1044 12.7275 13.5 13.338 13.5 14.0911C13.5 14.8442 14.1044 15.4548 14.85 15.4548C15.5956 15.4548 16.2 14.8442 16.2 14.0911ZM3.15 15.4548C3.89558 15.4548 4.5 16.0653 4.5 16.8184C4.5 17.5715 3.89558 18.182 3.15 18.182C2.40442 18.182 1.8 17.5715 1.8 16.8184C1.8 16.0653 2.40442 15.4548 3.15 15.4548Z" fill="black"/>
</svg>
