<svg width="115" height="20" viewBox="0 0 115 20" fill="none" xmlns="http://www.w3.org/2000/svg">
<path d="M35.024 16.128C34.4373 16.128 33.888 16.08 33.376 15.984C32.864 15.8773 32.3893 15.7173 31.952 15.504C31.5147 15.28 31.12 15.008 30.768 14.688L31.264 13.68C31.84 14.16 32.416 14.5013 32.992 14.704C33.5787 14.9067 34.2613 15.008 35.04 15.008C35.9467 15.008 36.6507 14.832 37.152 14.48C37.6533 14.1173 37.904 13.6107 37.904 12.96C37.904 12.5653 37.776 12.2507 37.52 12.016C37.2747 11.7707 36.9333 11.5787 36.496 11.44C36.0693 11.2907 35.584 11.152 35.04 11.024C34.496 10.9067 33.9787 10.7733 33.488 10.624C32.9973 10.464 32.56 10.2667 32.176 10.032C31.8027 9.79733 31.5093 9.49867 31.296 9.136C31.0827 8.77333 30.976 8.32 30.976 7.776C30.976 7.12533 31.1467 6.55467 31.488 6.064C31.8293 5.56267 32.3093 5.17333 32.928 4.896C33.5467 4.61867 34.2773 4.48 35.12 4.48C35.6427 4.48 36.144 4.53867 36.624 4.656C37.104 4.76267 37.5467 4.92267 37.952 5.136C38.368 5.34933 38.736 5.61067 39.056 5.92L38.544 6.928C38.0213 6.46933 37.4827 6.13333 36.928 5.92C36.3733 5.70667 35.7707 5.6 35.12 5.6C34.2347 5.6 33.5413 5.78667 33.04 6.16C32.5387 6.53333 32.288 7.056 32.288 7.728C32.288 8.144 32.4 8.48 32.624 8.736C32.848 8.992 33.1627 9.2 33.568 9.36C33.9733 9.50933 34.4373 9.648 34.96 9.776C35.5147 9.904 36.048 10.0427 36.56 10.192C37.072 10.3413 37.5253 10.528 37.92 10.752C38.3253 10.9653 38.6453 11.248 38.88 11.6C39.1147 11.9413 39.232 12.3787 39.232 12.912C39.232 13.5627 39.0613 14.128 38.72 14.608C38.3787 15.088 37.8933 15.4613 37.264 15.728C36.6347 15.9947 35.888 16.128 35.024 16.128ZM41.2168 16V4.224H42.5128V9.584L42.3048 9.744C42.5288 9.09333 42.9021 8.60267 43.4248 8.272C43.9474 7.93067 44.5501 7.76 45.2328 7.76C47.1634 7.76 48.1288 8.82133 48.1288 10.944V16H46.8328V11.008C46.8328 10.2613 46.6834 9.71733 46.3848 9.376C46.0861 9.024 45.6168 8.848 44.9768 8.848C44.2301 8.848 43.6328 9.07733 43.1848 9.536C42.7368 9.99467 42.5128 10.6133 42.5128 11.392V16H41.2168ZM53.9041 16.112C53.1361 16.112 52.4641 15.9413 51.8881 15.6C51.3228 15.2587 50.8801 14.7787 50.5601 14.16C50.2508 13.5307 50.0961 12.7893 50.0961 11.936C50.0961 11.0933 50.2508 10.3573 50.5601 9.728C50.8801 9.09867 51.3228 8.61333 51.8881 8.272C52.4641 7.93067 53.1361 7.76 53.9041 7.76C54.6721 7.76 55.3388 7.93067 55.9041 8.272C56.4801 8.61333 56.9228 9.09867 57.2321 9.728C57.5521 10.3573 57.7121 11.0933 57.7121 11.936C57.7121 12.7893 57.5521 13.5307 57.2321 14.16C56.9228 14.7787 56.4801 15.2587 55.9041 15.6C55.3388 15.9413 54.6721 16.112 53.9041 16.112ZM53.9041 15.04C54.6935 15.04 55.3015 14.7787 55.7281 14.256C56.1655 13.7227 56.3841 12.9493 56.3841 11.936C56.3841 10.944 56.1655 10.1813 55.7281 9.648C55.2908 9.11467 54.6828 8.848 53.9041 8.848C53.1255 8.848 52.5121 9.11467 52.0641 9.648C51.6268 10.1813 51.4081 10.944 51.4081 11.936C51.4081 12.9493 51.6215 13.7227 52.0481 14.256C52.4855 14.7787 53.1041 15.04 53.9041 15.04ZM61.7986 16L58.8226 7.952H60.1826L62.6626 15.04H62.2466L64.8066 7.952H65.9426L68.4706 15.04H68.0546L70.5826 7.952H71.8626L68.8866 16H67.6386L64.9826 8.752H65.6866L63.0466 16H61.7986ZM77.7168 16V10.208C77.7168 9.83467 77.7061 9.46133 77.6848 9.088C77.6741 8.704 77.6421 8.32533 77.5888 7.952H78.8207L78.9648 9.616L78.8048 9.728C78.9968 9.09867 79.3274 8.61333 79.7968 8.272C80.2768 7.93067 80.8421 7.76 81.4928 7.76C82.2714 7.76 82.8741 7.952 83.3008 8.336C83.7381 8.72 84.0154 9.30667 84.1328 10.096L83.7488 9.888C83.9194 9.23733 84.2608 8.72 84.7728 8.336C85.2954 7.952 85.9194 7.76 86.6448 7.76C87.5301 7.76 88.1968 8.02667 88.6448 8.56C89.0928 9.08267 89.3168 9.87733 89.3168 10.944V16H88.0208V11.008C88.0208 10.2613 87.8874 9.71733 87.6208 9.376C87.3541 9.024 86.9328 8.848 86.3568 8.848C85.6848 8.848 85.1514 9.07733 84.7568 9.536C84.3728 9.99467 84.1808 10.6187 84.1808 11.408V16H82.8848V11.008C82.8848 10.2613 82.7461 9.71733 82.4688 9.376C82.2021 9.024 81.7808 8.848 81.2048 8.848C80.5221 8.848 79.9834 9.07733 79.5888 9.536C79.2048 9.99467 79.0128 10.6187 79.0128 11.408V16H77.7168ZM95.1073 16.112C94.3393 16.112 93.6673 15.9413 93.0913 15.6C92.5259 15.2587 92.0833 14.7787 91.7633 14.16C91.4539 13.5307 91.2993 12.7893 91.2993 11.936C91.2993 11.0933 91.4539 10.3573 91.7633 9.728C92.0833 9.09867 92.5259 8.61333 93.0913 8.272C93.6673 7.93067 94.3393 7.76 95.1073 7.76C95.8753 7.76 96.5419 7.93067 97.1073 8.272C97.6833 8.61333 98.1259 9.09867 98.4353 9.728C98.7553 10.3573 98.9153 11.0933 98.9153 11.936C98.9153 12.7893 98.7553 13.5307 98.4353 14.16C98.1259 14.7787 97.6833 15.2587 97.1073 15.6C96.5419 15.9413 95.8753 16.112 95.1073 16.112ZM95.1073 15.04C95.8966 15.04 96.5046 14.7787 96.9313 14.256C97.3686 13.7227 97.5873 12.9493 97.5873 11.936C97.5873 10.944 97.3686 10.1813 96.9313 9.648C96.4939 9.11467 95.8859 8.848 95.1073 8.848C94.3286 8.848 93.7153 9.11467 93.2673 9.648C92.8299 10.1813 92.6113 10.944 92.6113 11.936C92.6113 12.9493 92.8246 13.7227 93.2513 14.256C93.6886 14.7787 94.3073 15.04 95.1073 15.04ZM100.936 16V10.208C100.936 9.83467 100.925 9.46133 100.904 9.088C100.893 8.704 100.861 8.32533 100.808 7.952H102.039L102.216 9.936L102.039 9.888C102.189 9.184 102.509 8.656 103 8.304C103.501 7.94133 104.061 7.76 104.68 7.76C104.818 7.76 104.946 7.77067 105.064 7.792C105.192 7.80267 105.309 7.824 105.416 7.856L105.384 9.04C105.138 8.95467 104.856 8.912 104.536 8.912C103.981 8.912 103.533 9.03467 103.192 9.28C102.861 9.52533 102.616 9.84 102.456 10.224C102.306 10.5973 102.232 10.992 102.232 11.408V16H100.936ZM113.168 15.04C112.816 15.3707 112.363 15.632 111.808 15.824C111.264 16.016 110.704 16.112 110.128 16.112C109.296 16.112 108.576 15.9467 107.968 15.616C107.371 15.2853 106.907 14.8107 106.576 14.192C106.256 13.5627 106.096 12.816 106.096 11.952C106.096 11.12 106.256 10.3893 106.576 9.76C106.896 9.13067 107.339 8.64 107.904 8.288C108.48 7.936 109.141 7.76 109.888 7.76C110.603 7.76 111.216 7.92 111.728 8.24C112.24 8.54933 112.629 8.99733 112.896 9.584C113.173 10.1707 113.312 10.8747 113.312 11.696V11.936H107.232V11.088H112.576L112.16 11.68C112.181 10.7413 111.995 10.0213 111.6 9.52C111.216 9.01867 110.651 8.768 109.904 8.768C109.125 8.768 108.512 9.04533 108.064 9.6C107.627 10.144 107.408 10.9013 107.408 11.872C107.408 12.9173 107.637 13.7067 108.096 14.24C108.565 14.7733 109.248 15.04 110.144 15.04C110.613 15.04 111.061 14.9653 111.488 14.816C111.925 14.656 112.341 14.416 112.736 14.096L113.168 15.04Z" fill="#898989"/>
<path opacity="0.24" d="M6.66931 13.2553L11.6193 8.30531C11.8704 8.04536 12.2422 7.9411 12.5918 8.03262C12.9415 8.12413 13.2145 8.39718 13.306 8.74681C13.3975 9.09644 13.2933 9.46824 13.0333 9.71931L7.37631 15.3763C6.98581 15.7667 6.35281 15.7667 5.96231 15.3763L0.305313 9.71931C0.0453564 9.46824 -0.0588996 9.09644 0.0326158 8.74681C0.124131 8.39718 0.397176 8.12413 0.746806 8.03262C1.09644 7.9411 1.46824 8.04536 1.71931 8.30531L6.66931 13.2553Z" fill="black"/>
</svg>
