<svg width="132" height="20" viewBox="0 0 132 20" fill="none" xmlns="http://www.w3.org/2000/svg">
<path d="M37.024 16.128C36.4373 16.128 35.888 16.08 35.376 15.984C34.864 15.8773 34.3893 15.7173 33.952 15.504C33.5147 15.28 33.12 15.008 32.768 14.688L33.264 13.68C33.84 14.16 34.416 14.5013 34.992 14.704C35.5787 14.9067 36.2613 15.008 37.04 15.008C37.9467 15.008 38.6507 14.832 39.152 14.48C39.6533 14.1173 39.904 13.6107 39.904 12.96C39.904 12.5653 39.776 12.2507 39.52 12.016C39.2747 11.7707 38.9333 11.5787 38.496 11.44C38.0693 11.2907 37.584 11.152 37.04 11.024C36.496 10.9067 35.9787 10.7733 35.488 10.624C34.9973 10.464 34.56 10.2667 34.176 10.032C33.8027 9.79733 33.5093 9.49867 33.296 9.136C33.0827 8.77333 32.976 8.32 32.976 7.776C32.976 7.12533 33.1467 6.55467 33.488 6.064C33.8293 5.56267 34.3093 5.17333 34.928 4.896C35.5467 4.61867 36.2773 4.48 37.12 4.48C37.6427 4.48 38.144 4.53867 38.624 4.656C39.104 4.76267 39.5467 4.92267 39.952 5.136C40.368 5.34933 40.736 5.61067 41.056 5.92L40.544 6.928C40.0213 6.46933 39.4827 6.13333 38.928 5.92C38.3733 5.70667 37.7707 5.6 37.12 5.6C36.2347 5.6 35.5413 5.78667 35.04 6.16C34.5387 6.53333 34.288 7.056 34.288 7.728C34.288 8.144 34.4 8.48 34.624 8.736C34.848 8.992 35.1627 9.2 35.568 9.36C35.9733 9.50933 36.4373 9.648 36.96 9.776C37.5147 9.904 38.048 10.0427 38.56 10.192C39.072 10.3413 39.5253 10.528 39.92 10.752C40.3253 10.9653 40.6453 11.248 40.88 11.6C41.1147 11.9413 41.232 12.3787 41.232 12.912C41.232 13.5627 41.0613 14.128 40.72 14.608C40.3787 15.088 39.8933 15.4613 39.264 15.728C38.6347 15.9947 37.888 16.128 37.024 16.128ZM46.0648 16.112C45.1048 16.112 44.3794 15.8453 43.8888 15.312C43.4088 14.7787 43.1688 13.9893 43.1688 12.944V7.952H44.4648V12.912C44.4648 13.6373 44.6141 14.1707 44.9128 14.512C45.2114 14.8533 45.6648 15.024 46.2728 15.024C46.9874 15.024 47.5634 14.7947 48.0008 14.336C48.4381 13.8773 48.6568 13.264 48.6568 12.496V7.952H49.9528V16H48.6888V14.256L48.8808 14.16C48.6674 14.8 48.3048 15.2853 47.7928 15.616C47.2914 15.9467 46.7154 16.112 46.0648 16.112ZM52.4511 16V4.224H53.7471V10.016L53.5711 9.856C53.7525 9.19467 54.0991 8.68267 54.6111 8.32C55.1231 7.94667 55.7418 7.76 56.4671 7.76C57.1818 7.76 57.8058 7.93067 58.3391 8.272C58.8725 8.61333 59.2885 9.09333 59.5871 9.712C59.8965 10.3307 60.0511 11.0613 60.0511 11.904C60.0511 12.7467 59.8965 13.488 59.5871 14.128C59.2885 14.7573 58.8671 15.248 58.3231 15.6C57.7898 15.9413 57.1711 16.112 56.4671 16.112C55.7418 16.112 55.1231 15.9307 54.6111 15.568C54.0991 15.2053 53.7525 14.688 53.5711 14.016L53.7471 13.84V16H52.4511ZM56.2271 15.04C57.0058 15.04 57.6138 14.768 58.0511 14.224C58.4885 13.6693 58.7071 12.896 58.7071 11.904C58.7071 10.9333 58.4885 10.1813 58.0511 9.648C57.6138 9.11467 57.0058 8.848 56.2271 8.848C55.4271 8.848 54.8138 9.12 54.3871 9.664C53.9605 10.1973 53.7471 10.9547 53.7471 11.936C53.7471 12.928 53.9605 13.696 54.3871 14.24C54.8138 14.7733 55.4271 15.04 56.2271 15.04ZM64.7649 16.112C63.4102 16.112 62.3382 15.7653 61.5489 15.072L61.9809 14.112C62.4075 14.4427 62.8449 14.688 63.2929 14.848C63.7515 14.9973 64.2582 15.072 64.8129 15.072C65.4209 15.072 65.8795 14.9707 66.1889 14.768C66.5089 14.5547 66.6689 14.2507 66.6689 13.856C66.6689 13.536 66.5622 13.2853 66.3489 13.104C66.1355 12.912 65.7835 12.7573 65.2929 12.64L63.9329 12.32C63.2609 12.1707 62.7382 11.904 62.3649 11.52C62.0022 11.136 61.8209 10.6773 61.8209 10.144C61.8209 9.67467 61.9489 9.264 62.2049 8.912C62.4609 8.54933 62.8182 8.26667 63.2769 8.064C63.7355 7.86133 64.2795 7.76 64.9089 7.76C65.4742 7.76 66.0075 7.85067 66.5089 8.032C67.0102 8.21333 67.4315 8.47467 67.7729 8.816L67.3409 9.76C66.9569 9.44 66.5622 9.20533 66.1569 9.056C65.7622 8.896 65.3462 8.816 64.9089 8.816C64.3329 8.816 63.8849 8.928 63.5649 9.152C63.2555 9.376 63.1009 9.68 63.1009 10.064C63.1009 10.3947 63.1969 10.656 63.3889 10.848C63.5915 11.04 63.9115 11.1893 64.3489 11.296L65.7089 11.632C66.4662 11.792 67.0209 12.0587 67.3729 12.432C67.7355 12.7947 67.9169 13.2587 67.9169 13.824C67.9169 14.5173 67.6342 15.072 67.0689 15.488C66.5035 15.904 65.7355 16.112 64.7649 16.112ZM73.3584 16.112C72.569 16.112 71.8864 15.9413 71.3104 15.6C70.7344 15.2587 70.2864 14.7787 69.9664 14.16C69.657 13.5413 69.5024 12.8107 69.5024 11.968C69.5024 11.136 69.6624 10.4053 69.9824 9.776C70.3024 9.136 70.7557 8.64 71.3424 8.288C71.929 7.936 72.6224 7.76 73.4224 7.76C73.9664 7.76 74.489 7.856 74.9904 8.048C75.5024 8.22933 75.9237 8.48533 76.2544 8.816L75.8224 9.776C75.4277 9.46667 75.0384 9.23733 74.6544 9.088C74.281 8.928 73.8917 8.848 73.4864 8.848C72.6757 8.848 72.0304 9.12 71.5504 9.664C71.081 10.208 70.8464 10.976 70.8464 11.968C70.8464 12.9493 71.081 13.7067 71.5504 14.24C72.0197 14.7733 72.665 15.04 73.4864 15.04C73.881 15.04 74.2704 14.9653 74.6544 14.816C75.0384 14.656 75.4277 14.4213 75.8224 14.112L76.2544 15.072C75.913 15.392 75.481 15.648 74.9584 15.84C74.4464 16.0213 73.913 16.112 73.3584 16.112ZM77.9043 16V10.208C77.9043 9.83467 77.8936 9.46133 77.8723 9.088C77.8616 8.704 77.8296 8.32533 77.7763 7.952H79.0082L79.1843 9.936L79.0082 9.888C79.1576 9.184 79.4776 8.656 79.9683 8.304C80.4696 7.94133 81.0296 7.76 81.6483 7.76C81.7869 7.76 81.9149 7.77067 82.0323 7.792C82.1603 7.80267 82.2776 7.824 82.3843 7.856L82.3523 9.04C82.1069 8.95467 81.8243 8.912 81.5043 8.912C80.9496 8.912 80.5016 9.03467 80.1603 9.28C79.8296 9.52533 79.5843 9.84 79.4243 10.224C79.2749 10.5973 79.2003 10.992 79.2003 11.408V16H77.9043ZM83.7011 16V7.952H84.9971V16H83.7011ZM83.5731 4.544H85.1571V6.016H83.5731V4.544ZM87.5136 19.456V10.208C87.5136 9.83467 87.503 9.46133 87.4816 9.088C87.471 8.704 87.439 8.32533 87.3856 7.952H88.6176L88.7616 9.616L88.6336 9.856C88.815 9.184 89.1616 8.66667 89.6736 8.304C90.1856 7.94133 90.8043 7.76 91.5296 7.76C92.2336 7.76 92.8523 7.936 93.3856 8.288C93.9296 8.64 94.351 9.13067 94.6496 9.76C94.959 10.3893 95.1136 11.1253 95.1136 11.968C95.1136 12.8107 94.959 13.5467 94.6496 14.176C94.351 14.7947 93.935 15.2747 93.4016 15.616C92.8683 15.9467 92.2443 16.112 91.5296 16.112C90.8043 16.112 90.1856 15.9307 89.6736 15.568C89.1616 15.2053 88.815 14.688 88.6336 14.016L88.8096 13.856V19.456H87.5136ZM91.2896 15.04C92.0683 15.04 92.6763 14.7733 93.1136 14.24C93.551 13.7067 93.7696 12.9493 93.7696 11.968C93.7696 10.9867 93.551 10.224 93.1136 9.68C92.6763 9.12533 92.0683 8.848 91.2896 8.848C90.4896 8.848 89.8763 9.11467 89.4496 9.648C89.023 10.1813 88.8096 10.944 88.8096 11.936C88.8096 12.928 89.023 13.696 89.4496 14.24C89.8763 14.7733 90.4896 15.04 91.2896 15.04ZM95.9558 8.976V7.952H101.124V8.976H95.9558ZM101.092 14.848V15.952C100.91 16.0053 100.729 16.0427 100.548 16.064C100.377 16.096 100.185 16.112 99.9718 16.112C99.2251 16.112 98.6278 15.8987 98.1798 15.472C97.7424 15.0453 97.5238 14.4053 97.5238 13.552V5.888L98.8198 5.424V13.376C98.8198 13.8027 98.8784 14.1333 98.9958 14.368C99.1238 14.6027 99.2944 14.768 99.5078 14.864C99.7211 14.9493 99.9611 14.992 100.228 14.992C100.388 14.992 100.532 14.9813 100.66 14.96C100.788 14.9387 100.932 14.9013 101.092 14.848ZM102.686 16V7.952H103.982V16H102.686ZM102.558 4.544H104.142V6.016H102.558V4.544ZM109.826 16.112C109.058 16.112 108.386 15.9413 107.81 15.6C107.245 15.2587 106.802 14.7787 106.482 14.16C106.173 13.5307 106.018 12.7893 106.018 11.936C106.018 11.0933 106.173 10.3573 106.482 9.728C106.802 9.09867 107.245 8.61333 107.81 8.272C108.386 7.93067 109.058 7.76 109.826 7.76C110.594 7.76 111.261 7.93067 111.826 8.272C112.402 8.61333 112.845 9.09867 113.154 9.728C113.474 10.3573 113.634 11.0933 113.634 11.936C113.634 12.7893 113.474 13.5307 113.154 14.16C112.845 14.7787 112.402 15.2587 111.826 15.6C111.261 15.9413 110.594 16.112 109.826 16.112ZM109.826 15.04C110.615 15.04 111.223 14.7787 111.65 14.256C112.087 13.7227 112.306 12.9493 112.306 11.936C112.306 10.944 112.087 10.1813 111.65 9.648C111.213 9.11467 110.605 8.848 109.826 8.848C109.047 8.848 108.434 9.11467 107.986 9.648C107.549 10.1813 107.33 10.944 107.33 11.936C107.33 12.9493 107.543 13.7227 107.97 14.256C108.407 14.7787 109.026 15.04 109.826 15.04ZM115.654 16V10.208C115.654 9.83467 115.644 9.46133 115.622 9.088C115.612 8.704 115.58 8.32533 115.526 7.952H116.758L116.902 9.616L116.742 9.744C116.966 9.09333 117.34 8.60267 117.862 8.272C118.385 7.93067 118.988 7.76 119.67 7.76C121.601 7.76 122.566 8.82133 122.566 10.944V16H121.27V11.008C121.27 10.2613 121.121 9.71733 120.822 9.376C120.524 9.024 120.054 8.848 119.414 8.848C118.668 8.848 118.07 9.07733 117.622 9.536C117.174 9.99467 116.95 10.6133 116.95 11.392V16H115.654ZM127.734 16.112C126.379 16.112 125.307 15.7653 124.518 15.072L124.95 14.112C125.376 14.4427 125.814 14.688 126.262 14.848C126.72 14.9973 127.227 15.072 127.782 15.072C128.39 15.072 128.848 14.9707 129.158 14.768C129.478 14.5547 129.638 14.2507 129.638 13.856C129.638 13.536 129.531 13.2853 129.318 13.104C129.104 12.912 128.752 12.7573 128.262 12.64L126.902 12.32C126.23 12.1707 125.707 11.904 125.334 11.52C124.971 11.136 124.79 10.6773 124.79 10.144C124.79 9.67467 124.918 9.264 125.174 8.912C125.43 8.54933 125.787 8.26667 126.246 8.064C126.704 7.86133 127.248 7.76 127.878 7.76C128.443 7.76 128.976 7.85067 129.478 8.032C129.979 8.21333 130.4 8.47467 130.742 8.816L130.31 9.76C129.926 9.44 129.531 9.20533 129.126 9.056C128.731 8.896 128.315 8.816 127.878 8.816C127.302 8.816 126.854 8.928 126.534 9.152C126.224 9.376 126.07 9.68 126.07 10.064C126.07 10.3947 126.166 10.656 126.358 10.848C126.56 11.04 126.88 11.1893 127.318 11.296L128.678 11.632C129.435 11.792 129.99 12.0587 130.342 12.432C130.704 12.7947 130.886 13.2587 130.886 13.824C130.886 14.5173 130.603 15.072 130.038 15.488C129.472 15.904 128.704 16.112 127.734 16.112Z" fill="#898989"/>
<path opacity="0.24" fill-rule="evenodd" clip-rule="evenodd" d="M3.9056 2C3.9056 1.44772 4.35471 1 4.901 1H12.9102C13.4599 1 13.9056 1.44386 13.9056 2C13.9056 2.55228 13.4565 3 12.9102 3H4.901C4.35125 3 3.9056 2.55614 3.9056 2ZM0.0101027 9.0949L0.811023 17.1041C0.917267 18.1665 1.83603 19 2.90122 19H14.91C15.9712 19 16.8943 18.1632 17.0002 17.1041L17.8011 9.0949C17.9152 7.95379 17.0495 7 15.9047 7H1.90647C0.759323 7 -0.103812 7.95576 0.0101027 9.0949ZM2.01101 9.00421L15.7998 9.0079L14.9056 17H2.9056L2.01101 9.00421ZM2.90122 4C2.35555 4 1.9056 4.44772 1.9056 5C1.9056 5.55614 2.35136 6 2.90122 6H14.91C15.4557 6 15.9056 5.55228 15.9056 5C15.9056 4.44386 15.4598 4 14.91 4H2.90122Z" fill="black"/>
</svg>
