<svg width="96" height="21" viewBox="0 0 96 21" fill="none" xmlns="http://www.w3.org/2000/svg">
<path d="M35.16 16V5.728H31.192V4.608H40.456V5.728H36.488V16H35.16ZM40.6543 16V10.208C40.6543 9.83467 40.6436 9.46133 40.6223 9.088C40.6116 8.704 40.5796 8.32533 40.5263 7.952H41.7582L41.9343 9.936L41.7582 9.888C41.9076 9.184 42.2276 8.656 42.7183 8.304C43.2196 7.94133 43.7796 7.76 44.3983 7.76C44.5369 7.76 44.6649 7.77067 44.7823 7.792C44.9103 7.80267 45.0276 7.824 45.1343 7.856L45.1023 9.04C44.8569 8.95467 44.5743 8.912 44.2543 8.912C43.6996 8.912 43.2516 9.03467 42.9103 9.28C42.5796 9.52533 42.3343 9.84 42.1743 10.224C42.0249 10.5973 41.9503 10.992 41.9503 11.408V16H40.6543ZM52.8869 15.04C52.5349 15.3707 52.0815 15.632 51.5269 15.824C50.9829 16.016 50.4229 16.112 49.8469 16.112C49.0149 16.112 48.2949 15.9467 47.6869 15.616C47.0895 15.2853 46.6255 14.8107 46.2949 14.192C45.9749 13.5627 45.8149 12.816 45.8149 11.952C45.8149 11.12 45.9749 10.3893 46.2949 9.76C46.6149 9.13067 47.0575 8.64 47.6229 8.288C48.1989 7.936 48.8602 7.76 49.6069 7.76C50.3215 7.76 50.9349 7.92 51.4469 8.24C51.9589 8.54933 52.3482 8.99733 52.6149 9.584C52.8922 10.1707 53.0309 10.8747 53.0309 11.696V11.936H46.9509V11.088H52.2949L51.8789 11.68C51.9002 10.7413 51.7135 10.0213 51.3189 9.52C50.9349 9.01867 50.3695 8.768 49.6229 8.768C48.8442 8.768 48.2309 9.04533 47.7829 9.6C47.3455 10.144 47.1269 10.9013 47.1269 11.872C47.1269 12.9173 47.3562 13.7067 47.8149 14.24C48.2842 14.7733 48.9669 15.04 49.8629 15.04C50.3322 15.04 50.7802 14.9653 51.2069 14.816C51.6442 14.656 52.0602 14.416 52.4549 14.096L52.8869 15.04ZM54.998 16V10.208C54.998 9.83467 54.9873 9.46133 54.966 9.088C54.9553 8.704 54.9233 8.32533 54.87 7.952H56.102L56.246 9.616L56.086 9.744C56.31 9.09333 56.6833 8.60267 57.206 8.272C57.7287 7.93067 58.3313 7.76 59.014 7.76C60.9447 7.76 61.91 8.82133 61.91 10.944V16H60.614V11.008C60.614 10.2613 60.4647 9.71733 60.166 9.376C59.8673 9.024 59.398 8.848 58.758 8.848C58.0113 8.848 57.414 9.07733 56.966 9.536C56.518 9.99467 56.294 10.6133 56.294 11.392V16H54.998ZM71.4454 16H70.1654V13.84L70.3574 14.016C70.176 14.688 69.8294 15.2053 69.3174 15.568C68.8054 15.9307 68.1814 16.112 67.4454 16.112C66.7414 16.112 66.1174 15.9413 65.5734 15.6C65.04 15.248 64.624 14.7573 64.3254 14.128C64.0267 13.488 63.8774 12.7467 63.8774 11.904C63.8774 11.0613 64.0214 10.3307 64.3094 9.712C64.608 9.09333 65.024 8.61333 65.5574 8.272C66.1014 7.93067 66.7307 7.76 67.4454 7.76C68.1814 7.76 68.8054 7.94667 69.3174 8.32C69.8294 8.68267 70.176 9.19467 70.3574 9.856L70.1494 10.016V4.224H71.4454V16ZM67.7014 15.04C68.48 15.04 69.0827 14.7733 69.5094 14.24C69.9467 13.696 70.1654 12.928 70.1654 11.936C70.1654 10.9547 69.952 10.1973 69.5254 9.664C69.0987 9.12 68.4907 8.848 67.7014 8.848C66.912 8.848 66.2934 9.11467 65.8454 9.648C65.408 10.1813 65.1894 10.9333 65.1894 11.904C65.1894 12.896 65.408 13.6693 65.8454 14.224C66.2934 14.768 66.912 15.04 67.7014 15.04ZM73.9511 16V7.952H75.2471V16H73.9511ZM73.8231 4.544H75.4071V6.016H73.8231V4.544ZM77.7636 16V10.208C77.7636 9.83467 77.753 9.46133 77.7316 9.088C77.721 8.704 77.689 8.32533 77.6356 7.952H78.8676L79.0116 9.616L78.8516 9.744C79.0756 9.09333 79.449 8.60267 79.9716 8.272C80.4943 7.93067 81.097 7.76 81.7796 7.76C83.7103 7.76 84.6756 8.82133 84.6756 10.944V16H83.3796V11.008C83.3796 10.2613 83.2303 9.71733 82.9316 9.376C82.633 9.024 82.1636 8.848 81.5236 8.848C80.777 8.848 80.1796 9.07733 79.7316 9.536C79.2836 9.99467 79.0596 10.6133 79.0596 11.392V16H77.7636ZM90.659 19.568C89.443 19.568 88.387 19.2907 87.491 18.736L87.715 17.68C88.2163 17.968 88.691 18.176 89.139 18.304C89.587 18.432 90.0937 18.496 90.659 18.496C91.427 18.496 92.0083 18.288 92.403 17.872C92.8083 17.4667 93.011 16.8587 93.011 16.048V13.872L93.187 13.664C93.059 14.0907 92.8563 14.464 92.579 14.784C92.3123 15.0933 91.9817 15.3333 91.587 15.504C91.1923 15.6747 90.7443 15.76 90.243 15.76C89.5283 15.76 88.899 15.5947 88.355 15.264C87.8217 14.9227 87.4003 14.4533 87.091 13.856C86.7923 13.2587 86.643 12.56 86.643 11.76C86.643 10.96 86.7923 10.2613 87.091 9.664C87.4003 9.06667 87.8217 8.60267 88.355 8.272C88.899 7.93067 89.5283 7.76 90.243 7.76C90.9897 7.76 91.619 7.94667 92.131 8.32C92.6537 8.68267 93.0057 9.19467 93.187 9.856L92.995 9.68V7.952H94.291V15.936C94.291 17.1413 93.9817 18.048 93.363 18.656C92.755 19.264 91.8537 19.568 90.659 19.568ZM90.499 14.672C91.2777 14.672 91.8857 14.416 92.323 13.904C92.771 13.3813 92.995 12.6667 92.995 11.76C92.995 10.8533 92.771 10.144 92.323 9.632C91.8857 9.10933 91.2777 8.848 90.499 8.848C89.7097 8.848 89.0857 9.10933 88.627 9.632C88.179 10.144 87.955 10.8533 87.955 11.76C87.955 12.6773 88.179 13.392 88.627 13.904C89.0857 14.416 89.7097 14.672 90.499 14.672Z" fill="#898989"/>
<path opacity="0.24" fill-rule="evenodd" clip-rule="evenodd" d="M13.615 7.20041C15.1323 8.51081 16 10.1175 16 12.321C16 16.9118 12.4133 20.5268 8.0115 20.5268C3.60573 20.5268 0 16.9093 0 12.321C0 9.79412 0.547583 8.23242 2.15502 5.6366C2.66365 4.81522 3.89867 5.11434 3.99436 6.08209C4.08034 6.95167 4.34435 7.69187 4.729 8.25935C4.47244 5.19295 5.80372 1.74433 9.08631 0.10596C9.84629 -0.27335 10.6943 0.424512 10.4966 1.26648C9.98409 3.44851 10.5121 4.62244 11.8924 5.88709C11.926 5.91795 12.098 6.04489 12.3254 6.21279C12.7373 6.51686 13.3311 6.95524 13.615 7.20041ZM2.62075 9.00737C2.33897 9.66335 2 10.4525 2 12.321C2 15.7681 4.70107 18.478 8.0115 18.478C11.3159 18.478 14 15.7727 14 12.321C14 10.7811 13.4246 9.71578 12.3258 8.76679C12.1524 8.61699 11.7458 8.31456 11.3632 8.0299C11.0014 7.76076 10.6609 7.5075 10.559 7.41416C9.23392 6.20002 8.4238 4.9071 8.31376 3.18307C7.64377 3.85212 6.10424 5.93208 6.97198 10.0484C7.1065 10.6865 6.6318 11.289 5.99451 11.289C4.73006 11.289 3.48016 10.2984 2.71627 8.78204C2.68562 8.85634 2.65357 8.93095 2.62075 9.00737Z" fill="black"/>
</svg>
