<svg width="119" height="20" viewBox="0 0 119 20" fill="none" xmlns="http://www.w3.org/2000/svg">
<path opacity="0.24" fill-rule="evenodd" clip-rule="evenodd" d="M12.7263 17.7342C11.4999 18.5194 10.0515 18.973 8.5 18.973C6.94846 18.973 5.50008 18.5194 4.27374 17.7342L3.36555 19.3497C3.08967 19.8405 2.48163 20.0104 2 19.7248C1.52171 19.4412 1.35565 18.817 1.6335 18.3227C1.6335 18.3227 2.68265 16.4627 2.70994 16.4264C1.3407 14.9519 0.5 12.9552 0.5 10.7568C0.5 9.53312 0.760452 8.37196 1.22753 7.32856C0.476253 6.66926 0 5.68905 0 4.59459C0 2.60935 1.567 1 3.5 1C4.79331 1 5.92278 1.72043 6.52869 2.79186C7.15928 2.62774 7.81973 2.54054 8.5 2.54054C9.11512 2.54054 9.71402 2.61184 10.2893 2.74683C10.9011 1.70029 12.017 1 13.2921 1C15.2251 1 16.7921 2.60935 16.7921 4.59459C16.7921 5.61644 16.3769 6.5387 15.7104 7.19316C16.2164 8.27113 16.5 9.47993 16.5 10.7568C16.5 12.9552 15.6593 14.9519 14.2901 16.4264C14.3173 16.4627 15.3665 18.3227 15.3665 18.3227C15.6443 18.817 15.4783 19.4412 15 19.7248C14.5184 20.0104 13.9103 19.8405 13.6344 19.3497L12.7263 17.7342ZM7.5 6.64845C7.5 6.08135 7.94386 5.62162 8.5 5.62162C9.05229 5.62162 9.5 6.07733 9.5 6.64845V10.7568C9.5 11.324 9.05665 11.7838 8.50095 11.7838H6.49905C5.94729 11.7838 5.5 11.3279 5.5 10.7568C5.5 10.1895 5.94335 9.72973 6.49905 9.72973H7.5V6.64845ZM2 4.59459C2 3.74378 2.67157 3.05405 3.5 3.05405C3.93928 3.05405 4.3426 3.24978 4.62052 3.56955C3.73645 4.07397 2.95519 4.74545 2.3172 5.54247C2.11715 5.27879 2 4.9482 2 4.59459ZM14.7921 4.59459C14.7921 3.74378 14.1205 3.05405 13.2921 3.05405C12.8889 3.05405 12.5161 3.21892 12.2426 3.49324C13.1305 3.9768 13.9191 4.62706 14.569 5.4034C14.7112 5.1665 14.7921 4.8885 14.7921 4.59459ZM8.5 16.9189C5.18629 16.9189 2.5 14.16 2.5 10.7568C2.5 7.35349 5.18629 4.59459 8.5 4.59459C11.8137 4.59459 14.5 7.35349 14.5 10.7568C14.5 14.16 11.8137 16.9189 8.5 16.9189Z" fill="black"/>
<path d="M35.528 16L31.528 4.608H32.872L36.36 14.88H35.848L39.416 4.608L40.424 4.624L43.928 14.88H43.432L46.952 4.608H48.248L44.264 16H43.144L39.72 6.176H40.072L36.632 16H35.528ZM52.2266 16.112C51.512 16.112 50.8826 15.9467 50.3386 15.616C49.8053 15.2747 49.3893 14.7947 49.0906 14.176C48.8026 13.5467 48.6586 12.8107 48.6586 11.968C48.6586 11.1253 48.808 10.3893 49.1066 9.76C49.4053 9.13067 49.8213 8.64 50.3546 8.288C50.8986 7.936 51.5226 7.76 52.2266 7.76C52.9626 7.76 53.5866 7.94133 54.0986 8.304C54.6106 8.66667 54.9573 9.184 55.1386 9.856L54.9466 9.984V7.952H56.2266V16H54.9466V13.92L55.1386 14.016C54.9573 14.688 54.6106 15.2053 54.0986 15.568C53.5866 15.9307 52.9626 16.112 52.2266 16.112ZM52.4826 15.04C53.272 15.04 53.88 14.7733 54.3066 14.24C54.7333 13.696 54.9466 12.928 54.9466 11.936C54.9466 10.944 54.728 10.1813 54.2906 9.648C53.864 9.11467 53.2613 8.848 52.4826 8.848C51.6933 8.848 51.0746 9.12533 50.6266 9.68C50.1893 10.224 49.9706 10.9867 49.9706 11.968C49.9706 12.9493 50.1893 13.7067 50.6266 14.24C51.0746 14.7733 51.6933 15.04 52.4826 15.04ZM57.5964 8.976V7.952H62.7644V8.976H57.5964ZM62.7324 14.848V15.952C62.551 16.0053 62.3697 16.0427 62.1884 16.064C62.0177 16.096 61.8257 16.112 61.6124 16.112C60.8657 16.112 60.2684 15.8987 59.8204 15.472C59.383 15.0453 59.1644 14.4053 59.1644 13.552V5.888L60.4604 5.424V13.376C60.4604 13.8027 60.519 14.1333 60.6364 14.368C60.7644 14.6027 60.935 14.768 61.1484 14.864C61.3617 14.9493 61.6017 14.992 61.8684 14.992C62.0284 14.992 62.1724 14.9813 62.3004 14.96C62.4284 14.9387 62.5724 14.9013 62.7324 14.848ZM67.7021 16.112C66.9128 16.112 66.2301 15.9413 65.6541 15.6C65.0781 15.2587 64.6301 14.7787 64.3101 14.16C64.0008 13.5413 63.8461 12.8107 63.8461 11.968C63.8461 11.136 64.0061 10.4053 64.3261 9.776C64.6461 9.136 65.0995 8.64 65.6861 8.288C66.2728 7.936 66.9661 7.76 67.7661 7.76C68.3101 7.76 68.8328 7.856 69.3341 8.048C69.8461 8.22933 70.2675 8.48533 70.5981 8.816L70.1661 9.776C69.7715 9.46667 69.3821 9.23733 68.9981 9.088C68.6248 8.928 68.2355 8.848 67.8301 8.848C67.0195 8.848 66.3741 9.12 65.8941 9.664C65.4248 10.208 65.1901 10.976 65.1901 11.968C65.1901 12.9493 65.4248 13.7067 65.8941 14.24C66.3635 14.7733 67.0088 15.04 67.8301 15.04C68.2248 15.04 68.6141 14.9653 68.9981 14.816C69.3821 14.656 69.7715 14.4213 70.1661 14.112L70.5981 15.072C70.2568 15.392 69.8248 15.648 69.3021 15.84C68.7901 16.0213 68.2568 16.112 67.7021 16.112ZM72.248 16V4.224H73.544V9.584L73.336 9.744C73.56 9.09333 73.9333 8.60267 74.456 8.272C74.9787 7.93067 75.5813 7.76 76.264 7.76C78.1947 7.76 79.16 8.82133 79.16 10.944V16H77.864V11.008C77.864 10.2613 77.7147 9.71733 77.416 9.376C77.1173 9.024 76.648 8.848 76.008 8.848C75.2613 8.848 74.664 9.07733 74.216 9.536C73.768 9.99467 73.544 10.6133 73.544 11.392V16H72.248ZM85.7793 16V4.224H87.0753V16H85.7793ZM92.6798 16.112C91.9651 16.112 91.3358 15.9467 90.7918 15.616C90.2584 15.2747 89.8424 14.7947 89.5438 14.176C89.2558 13.5467 89.1118 12.8107 89.1118 11.968C89.1118 11.1253 89.2611 10.3893 89.5598 9.76C89.8584 9.13067 90.2744 8.64 90.8078 8.288C91.3518 7.936 91.9758 7.76 92.6798 7.76C93.4158 7.76 94.0398 7.94133 94.5518 8.304C95.0638 8.66667 95.4104 9.184 95.5918 9.856L95.3998 9.984V7.952H96.6798V16H95.3998V13.92L95.5918 14.016C95.4104 14.688 95.0638 15.2053 94.5518 15.568C94.0398 15.9307 93.4158 16.112 92.6798 16.112ZM92.9358 15.04C93.7251 15.04 94.3331 14.7733 94.7598 14.24C95.1864 13.696 95.3998 12.928 95.3998 11.936C95.3998 10.944 95.1811 10.1813 94.7438 9.648C94.3171 9.11467 93.7144 8.848 92.9358 8.848C92.1464 8.848 91.5278 9.12533 91.0798 9.68C90.6424 10.224 90.4238 10.9867 90.4238 11.968C90.4238 12.9493 90.6424 13.7067 91.0798 14.24C91.5278 14.7733 92.1464 15.04 92.9358 15.04ZM98.0495 8.976V7.952H103.218V8.976H98.0495ZM103.186 14.848V15.952C103.004 16.0053 102.823 16.0427 102.641 16.064C102.471 16.096 102.279 16.112 102.066 16.112C101.319 16.112 100.722 15.8987 100.274 15.472C99.8362 15.0453 99.6175 14.4053 99.6175 13.552V5.888L100.914 5.424V13.376C100.914 13.8027 100.972 14.1333 101.09 14.368C101.218 14.6027 101.388 14.768 101.602 14.864C101.815 14.9493 102.055 14.992 102.322 14.992C102.482 14.992 102.626 14.9813 102.754 14.96C102.882 14.9387 103.026 14.9013 103.186 14.848ZM111.371 15.04C111.019 15.3707 110.566 15.632 110.011 15.824C109.467 16.016 108.907 16.112 108.331 16.112C107.499 16.112 106.779 15.9467 106.171 15.616C105.574 15.2853 105.11 14.8107 104.779 14.192C104.459 13.5627 104.299 12.816 104.299 11.952C104.299 11.12 104.459 10.3893 104.779 9.76C105.099 9.13067 105.542 8.64 106.107 8.288C106.683 7.936 107.345 7.76 108.091 7.76C108.806 7.76 109.419 7.92 109.931 8.24C110.443 8.54933 110.833 8.99733 111.099 9.584C111.377 10.1707 111.515 10.8747 111.515 11.696V11.936H105.435V11.088H110.779L110.363 11.68C110.385 10.7413 110.198 10.0213 109.803 9.52C109.419 9.01867 108.854 8.768 108.107 8.768C107.329 8.768 106.715 9.04533 106.267 9.6C105.83 10.144 105.611 10.9013 105.611 11.872C105.611 12.9173 105.841 13.7067 106.299 14.24C106.769 14.7733 107.451 15.04 108.347 15.04C108.817 15.04 109.265 14.9653 109.691 14.816C110.129 14.656 110.545 14.416 110.939 14.096L111.371 15.04ZM113.482 16V10.208C113.482 9.83467 113.472 9.46133 113.45 9.088C113.44 8.704 113.408 8.32533 113.354 7.952H114.586L114.762 9.936L114.586 9.888C114.736 9.184 115.056 8.656 115.546 8.304C116.048 7.94133 116.608 7.76 117.226 7.76C117.365 7.76 117.493 7.77067 117.61 7.792C117.738 7.80267 117.856 7.824 117.962 7.856L117.93 9.04C117.685 8.95467 117.402 8.912 117.082 8.912C116.528 8.912 116.08 9.03467 115.738 9.28C115.408 9.52533 115.162 9.84 115.002 10.224C114.853 10.5973 114.778 10.992 114.778 11.408V16H113.482Z" fill="#898989"/>
</svg>
